<svg width="28" height="28" viewBox="0 0 28 28" fill="none" xmlns="http://www.w3.org/2000/svg">
<path fill-rule="evenodd" clip-rule="evenodd" d="M4.71436 4.71429V23.2857C4.71436 25.3371 6.3773 27 8.42864 27H23.2858C25.3371 27 27.0001 25.3371 27.0001 23.2857V4.71429C27.0001 2.66294 25.3371 1 23.2858 1H8.42864C6.3773 1 4.71436 2.66294 4.71436 4.71429Z" stroke="black" stroke-width="1.5" stroke-linecap="round" stroke-linejoin="round"/>
<path fill-rule="evenodd" clip-rule="evenodd" d="M19.5714 10.2857C19.5714 12.337 17.9085 14 15.8571 14C13.8058 14 12.1428 12.337 12.1428 10.2857C12.1428 8.23435 13.8058 6.57141 15.8571 6.57141C17.9085 6.57141 19.5714 8.23435 19.5714 10.2857Z" stroke="black" stroke-width="1.5" stroke-linecap="round" stroke-linejoin="round"/>
<path d="M4.26536 22.685C3.93355 22.9329 3.86555 23.4029 4.11348 23.7347C4.36141 24.0665 4.83139 24.1345 5.16321 23.8866L4.26536 22.685ZM26.5511 23.8866C26.8829 24.1345 27.3529 24.0665 27.6008 23.7347C27.8487 23.4029 27.7807 22.9329 27.4489 22.685L26.5511 23.8866ZM1 7.67859C0.585786 7.67859 0.25 8.01438 0.25 8.42859C0.25 8.8428 0.585786 9.17859 1 9.17859V7.67859ZM4.71429 9.17859C5.1285 9.17859 5.46429 8.8428 5.46429 8.42859C5.46429 8.01438 5.1285 7.67859 4.71429 7.67859V9.17859ZM1 13.25C0.585786 13.25 0.25 13.5858 0.25 14C0.25 14.4142 0.585786 14.75 1 14.75V13.25ZM4.71429 14.75C5.1285 14.75 5.46429 14.4142 5.46429 14C5.46429 13.5858 5.1285 13.25 4.71429 13.25V14.75ZM1 18.8214C0.585786 18.8214 0.25 19.1572 0.25 19.5714C0.25 19.9856 0.585786 20.3214 1 20.3214V18.8214ZM4.71429 20.3214C5.1285 20.3214 5.46429 19.9856 5.46429 19.5714C5.46429 19.1572 5.1285 18.8214 4.71429 18.8214V20.3214ZM5.16321 23.8866C11.5051 19.148 20.2092 19.148 26.5511 23.8866L27.4489 22.685C20.5746 17.5485 11.1397 17.5485 4.26536 22.685L5.16321 23.8866ZM1 9.17859H4.71429V7.67859H1V9.17859ZM1 14.75H4.71429V13.25H1V14.75ZM1 20.3214H4.71429V18.8214H1V20.3214Z" fill="black"/>
</svg>
