<svg width="28" height="28" viewBox="0 0 28 28" fill="none" xmlns="http://www.w3.org/2000/svg">
<path d="M9.73663 8.68863C10.0249 8.39117 10.0174 7.91636 9.71998 7.6281C9.42253 7.33984 8.94771 7.34729 8.65945 7.64475L9.73663 8.68863ZM5.29478 11.1167C5.00652 11.4142 5.01398 11.889 5.31143 12.1773C5.60889 12.4655 6.0837 12.4581 6.37196 12.1606L5.29478 11.1167ZM6.35581 11.1006C6.05862 10.812 5.5838 10.8191 5.29527 11.1163C5.00673 11.4134 5.01375 11.8883 5.31094 12.1768L6.35581 11.1006ZM8.67561 15.4435C8.97279 15.732 9.44762 15.725 9.73615 15.4278C10.0247 15.1306 10.0177 14.6558 9.72048 14.3672L8.67561 15.4435ZM5.83337 10.8887C5.41916 10.8887 5.08337 11.2245 5.08337 11.6387C5.08337 12.0529 5.41916 12.3887 5.83337 12.3887V10.8887ZM18.2234 11.6387L18.238 10.8888C18.2331 10.8887 18.2283 10.8887 18.2234 10.8887V11.6387ZM22.1667 15.736L21.4168 15.722C21.4167 15.7313 21.4167 15.7407 21.4168 15.7501L22.1667 15.736ZM18.2234 19.8334V20.5834C18.2283 20.5834 18.2331 20.5833 18.238 20.5832L18.2234 19.8334ZM5.83337 19.0834C5.41916 19.0834 5.08337 19.4191 5.08337 19.8334C5.08337 20.2476 5.41916 20.5834 5.83337 20.5834V19.0834ZM8.65945 7.64475L5.29478 11.1167L6.37196 12.1606L9.73663 8.68863L8.65945 7.64475ZM5.31094 12.1768L8.67561 15.4435L9.72048 14.3672L6.35581 11.1006L5.31094 12.1768ZM5.83337 12.3887H18.2234V10.8887H5.83337V12.3887ZM18.2087 12.3885C20.0148 12.4239 21.4507 13.9158 21.4168 15.722L22.9166 15.7501C22.966 13.1162 20.8719 10.9403 18.238 10.8888L18.2087 12.3885ZM21.4168 15.7501C21.4507 17.5562 20.0148 19.0482 18.2087 19.0835L18.238 20.5832C20.8719 20.5317 22.966 18.3559 22.9166 15.722L21.4168 15.7501ZM18.2234 19.0834H5.83337V20.5834H18.2234V19.0834Z" fill="#002F98"/>
</svg>
