<svg width="44" height="46" viewBox="0 0 44 46" fill="none" xmlns="http://www.w3.org/2000/svg">
<rect width="44" height="44" rx="3" fill="#ED8F00"/>
<rect x="18" width="8" height="9" fill="#DA0000"/>
<rect x="29" y="38" width="11" height="1.2" fill="#002F98"/>
<rect x="36.24" y="33" width="2.5" height="4" fill="#002F98"/>
<rect x="31.24" y="33" width="2.5" height="4" fill="#002F98"/>
<path d="M37.5 31L39.6651 34H35.3349L37.5 31Z" fill="#002F98"/>
<path d="M32.5 31L34.6651 34H30.3349L32.5 31Z" fill="#002F98"/>
<path d="M9.99806 40.224C7.23006 40.224 5.37406 37.888 5.37406 34.4C5.37406 30.912 7.23006 28.576 9.99806 28.576C12.7661 28.576 14.6061 30.912 14.6061 34.4C14.6061 37.888 12.7661 40.224 9.99806 40.224ZM9.99806 38.272C11.4541 38.272 12.4301 36.72 12.4301 34.4C12.4301 32.064 11.4541 30.528 9.99806 30.528C8.54206 30.528 7.56606 32.064 7.56606 34.4C7.56606 36.72 8.54206 38.272 9.99806 38.272Z" fill="white"/>
</svg>
