<svg width="24" height="23" viewBox="0 0 24 23" fill="none" xmlns="http://www.w3.org/2000/svg">
<path fill-rule="evenodd" clip-rule="evenodd" d="M2.08894 6.09659C3.28277 4.91984 3.70552 4.58976 4.21377 4.4373C4.56604 4.35067 4.93559 4.34559 5.29044 4.4225C5.75752 4.54979 5.87943 4.646 7.4121 6.07142C8.75794 7.32366 8.89094 7.45983 9.02077 7.69962C9.27191 8.13122 9.31228 8.64295 9.1316 9.10432C8.9986 9.45216 8.80227 9.68307 7.98685 10.4498L7.45485 10.9486C7.31489 11.0814 7.28171 11.283 7.37252 11.4489C8.55349 13.3326 10.2286 14.9037 12.2397 16.0138C12.4716 16.1301 12.7574 16.0923 12.9459 15.9206L13.4573 15.4499C13.7733 15.1467 14.1079 14.861 14.4595 14.5943C15.0108 14.2754 15.699 14.2446 16.2804 14.5129C16.5638 14.6372 16.6588 14.7187 18.0474 16.0123C19.4724 17.3445 19.5183 17.3874 19.6782 17.6938C19.9768 18.2014 19.9738 18.8171 19.6703 19.322C19.5119 19.6062 19.4233 19.7098 18.6189 20.4781C18.1329 20.9428 17.6689 21.3662 17.6024 21.4283C16.9381 21.9416 16.0867 22.1936 15.2274 22.1314C13.6555 21.9969 12.1342 21.5422 10.7704 20.7993C7.74751 19.302 5.1743 17.1204 3.28594 14.4537C2.87299 13.8962 2.50567 13.3104 2.1871 12.7012C1.33829 11.3408 0.899472 9.79097 0.917269 8.21621C0.981115 7.38955 1.40458 6.62348 2.08894 6.09659Z" stroke="#002F98" stroke-width="1.5" stroke-linecap="round" stroke-linejoin="round"/>
<path d="M15.5452 0.696399C15.1525 0.564635 14.7273 0.776164 14.5956 1.16886C14.4638 1.56156 14.6753 1.98672 15.068 2.11848L15.5452 0.696399ZM22.3697 8.82017C22.525 9.20416 22.9621 9.38956 23.3461 9.23426C23.7301 9.07896 23.9155 8.64177 23.7602 8.25777L22.3697 8.82017ZM13.7199 4.00847C13.3146 3.92291 12.9167 4.18209 12.8311 4.58736C12.7456 4.99264 13.0047 5.39055 13.41 5.47612L13.7199 4.00847ZM18.8716 10.4775C18.976 10.8784 19.3856 11.1187 19.7864 11.0143C20.1873 10.91 20.4276 10.5004 20.3232 10.0996L18.8716 10.4775ZM15.068 2.11848C18.451 3.25359 21.1121 5.71072 22.3697 8.82017L23.7602 8.25777C22.3288 4.71838 19.3187 1.96255 15.5452 0.696399L15.068 2.11848ZM13.41 5.47612C16.1278 6.04993 18.2275 8.00395 18.8716 10.4775L20.3232 10.0996C19.525 7.03393 16.9505 4.69055 13.7199 4.00847L13.41 5.47612Z" fill="#002F98"/>
</svg>
