<svg width="22" height="22" viewBox="0 0 22 22" fill="none" xmlns="http://www.w3.org/2000/svg">
<path fill-rule="evenodd" clip-rule="evenodd" d="M1.66675 11.0003C1.66707 6.54759 4.81267 2.71521 9.17985 1.84683C13.547 0.978444 17.9195 3.31592 19.6232 7.42976C21.3269 11.5436 19.8874 16.2881 16.185 18.7616C12.4826 21.2352 7.54844 20.7489 4.40008 17.6003C2.64978 15.8498 1.66657 13.4757 1.66675 11.0003Z" stroke="#002F98" stroke-width="1.5" stroke-linecap="round" stroke-linejoin="round"/>
<path d="M6.96977 13.9685C6.67682 14.2614 6.67673 14.7362 6.96957 15.0292C7.26241 15.3221 7.73728 15.3222 8.03023 15.0294L6.96977 13.9685ZM11.5302 11.5307C11.8232 11.2379 11.8233 10.763 11.5304 10.4701C11.2376 10.1771 10.7627 10.177 10.4698 10.4699L11.5302 11.5307ZM10.4695 10.4702C10.1767 10.7632 10.1769 11.238 10.4699 11.5308C10.7629 11.8236 11.2378 11.8234 11.5305 11.5304L10.4695 10.4702ZM15.0292 8.02909C15.322 7.73609 15.3218 7.26121 15.0288 6.96843C14.7358 6.67565 14.2609 6.67583 13.9681 6.96883L15.0292 8.02909ZM11.5302 10.4699C11.2373 10.177 10.7624 10.1771 10.4696 10.4701C10.1767 10.763 10.1768 11.2379 10.4698 11.5307L11.5302 10.4699ZM13.9698 15.0294C14.2627 15.3222 14.7376 15.3221 15.0304 15.0292C15.3233 14.7362 15.3232 14.2614 15.0302 13.9685L13.9698 15.0294ZM10.4696 11.5305C10.7624 11.8235 11.2373 11.8236 11.5302 11.5307C11.8232 11.2379 11.8233 10.763 11.5304 10.4701L10.4696 11.5305ZM8.03043 6.96873C7.73759 6.67578 7.26272 6.67569 6.96977 6.96853C6.67682 7.26137 6.67673 7.73624 6.96957 8.02919L8.03043 6.96873ZM8.03023 15.0294L11.5302 11.5307L10.4698 10.4699L6.96977 13.9685L8.03023 15.0294ZM11.5305 11.5304L15.0292 8.02909L13.9681 6.96883L10.4695 10.4702L11.5305 11.5304ZM10.4698 11.5307L13.9698 15.0294L15.0302 13.9685L11.5302 10.4699L10.4698 11.5307ZM11.5304 10.4701L8.03043 6.96873L6.96957 8.02919L10.4696 11.5305L11.5304 10.4701Z" fill="#002F98"/>
</svg>
