<svg width="89" height="54" viewBox="0 0 89 54" fill="none" xmlns="http://www.w3.org/2000/svg">
<g clip-path="url(#clip0_223_783)">
<path d="M20.6977 51.9193H15.8949C15.6467 51.9193 15.4424 52.11 15.3986 52.3446C15.3548 52.5353 15.4715 52.7112 15.6467 52.7551C15.6759 52.7551 15.7051 52.7551 15.7489 52.7551H17.8511L17.705 53.5613H15.6029C15.0482 53.5756 14.5957 53.136 14.5811 52.5936C14.5811 52.5057 14.5811 52.4326 14.6103 52.3446C14.7416 51.6412 15.3402 51.128 16.0409 51.0988H16.4204C16.1723 50.835 16.0555 50.4389 16.1431 50.0871C16.3182 49.032 17.2087 48.255 18.2744 48.1967H19.5882C20.4057 48.167 21.0772 48.8122 21.1064 49.6327C21.1064 49.7502 21.1064 49.8821 21.0772 49.9992H20.2743C20.3765 49.5596 20.0991 49.1199 19.6612 49.0172C19.5882 49.0172 19.5298 49.0028 19.4568 49.0028H18.143C17.5445 49.032 17.0482 49.4865 16.9605 50.0728C16.8584 50.5125 17.1211 50.9521 17.5591 51.0692C17.6175 51.0692 17.6905 51.0988 17.7488 51.0988H20.8583L20.7123 51.9193H20.6977ZM25.1939 51.1131L25.0479 51.9193H24.464C24.2596 51.9193 24.0698 51.8754 23.8947 51.7874C23.7779 52.3007 23.4859 52.7695 23.0626 53.092C22.6246 53.3998 22.1283 53.5613 21.6028 53.5905C21.267 53.6344 20.9458 53.6196 20.6101 53.5465L20.8729 52.7403C21.486 52.8431 22.0991 52.7403 22.6538 52.4617C22.9312 52.2419 23.1063 51.9341 23.1502 51.5824L23.7487 48.1967H24.5516L24.1428 50.5125C24.0844 50.7762 24.245 51.0252 24.5078 51.084C24.5516 51.084 24.5808 51.084 24.6246 51.084H25.2085L25.1939 51.1131ZM27.8654 51.1131L27.7194 51.9193H24.8874L25.0333 51.1131H27.8654ZM30.5514 51.1131L30.4054 51.9193H27.5734L27.7194 51.1131H30.5514ZM39.3103 48.1967L38.9745 50.1311C38.7702 51.1428 37.9089 51.8754 36.887 51.9193H36.3907C35.8798 51.9193 35.4126 51.6412 35.1644 51.1867C34.7849 51.6412 34.2447 51.905 33.6462 51.9193H33.0623C32.5951 51.9193 32.1426 51.6995 31.8798 51.289L31.8506 51.3478C31.5879 51.6995 31.1645 51.905 30.7266 51.9193H30.2156L30.3617 51.1131H30.8726C31.1937 51.1131 31.4711 50.8642 31.5295 50.5564L31.8068 48.988H32.6097L32.4054 50.1311C32.3032 50.5564 32.566 50.9961 32.9893 51.0988C33.0623 51.1131 33.1353 51.128 33.1937 51.1131H33.7776C34.3469 51.1131 34.8286 50.6883 34.9308 50.1311L35.1352 48.988H35.9381L35.7337 50.1459C35.6316 50.5708 35.8943 50.9961 36.3177 51.0988C36.3907 51.0988 36.4636 51.128 36.522 51.1131H37.0038C37.5585 51.0988 38.0257 50.6883 38.1424 50.1459L38.4782 48.211H39.2957L39.3103 48.1967ZM40.9307 46.1591H41.7482L40.7409 51.9193H39.9234L40.9307 46.1591ZM50.2588 51.1131L50.1131 51.9193H49.3245C49.0908 51.9193 48.8576 51.861 48.6387 51.7435L48.5949 52.0369C48.4926 52.5353 48.069 52.9014 47.5582 52.9162H44.8722C44.1568 52.931 43.5729 52.3738 43.5437 51.6704C43.5437 51.5676 43.5437 51.4505 43.5729 51.333L43.8357 49.853H44.6386L44.3758 51.333C44.3029 51.6704 44.5072 52.0073 44.843 52.0952C44.8868 52.0952 44.9452 52.11 45.0035 52.11H47.456C47.6311 52.11 47.7772 51.9633 47.821 51.7874L48.04 50.5125C48.04 50.5125 48.04 50.4097 48.0547 50.3657L48.1713 49.7063L48.7991 46.1004H49.6167L48.8719 50.3657C48.7991 50.6883 49.0033 50.9961 49.3245 51.0692C49.3683 51.0692 49.4121 51.0692 49.4559 51.0692H50.2588V51.1131ZM53.8645 51.1131L53.7188 51.9193H52.9012C52.5071 51.9193 52.1421 51.7435 51.9379 51.4066C51.6604 51.7143 51.2516 51.905 50.828 51.9193H49.967L50.1131 51.1131H50.8865C51.2663 51.1131 51.5871 50.8202 51.6457 50.4537L51.8941 48.988H52.7113L52.4486 50.4685C52.4048 50.7762 52.6237 51.0692 52.945 51.1131H53.8645ZM51.4267 53.0333C51.3682 53.3119 51.135 53.5173 50.8428 53.5317C50.6238 53.5317 50.4339 53.3706 50.4339 53.1508C50.4339 53.1068 50.4339 53.0772 50.4339 53.0481C50.4925 52.7695 50.7261 52.5793 51.0036 52.5645C51.2225 52.5645 51.412 52.7255 51.412 52.9601C51.412 52.9893 51.412 53.0189 51.412 53.0629M52.7551 53.0333C52.697 53.3119 52.4633 53.5173 52.1711 53.5317C51.9521 53.5317 51.7623 53.3558 51.7623 53.136C51.7623 53.1068 51.7623 53.0772 51.7623 53.0333C51.8208 52.7551 52.0545 52.5645 52.332 52.5496C52.5509 52.5496 52.7408 52.7112 52.7408 52.931C52.7408 52.9601 52.7408 53.0041 52.7408 53.0333M61.3243 50.0432L61.1054 51.3186C61.0468 51.6555 60.7551 51.905 60.4048 51.9193H53.558L53.7041 51.1131H54.5217L55.0324 48.211H55.8353L55.704 48.9732L59.2949 48.1967C59.8498 48.05 60.419 48.1967 60.8569 48.5484C61.2657 48.9293 61.4556 49.5008 61.339 50.058M60.5214 50.0432C60.5799 49.7354 60.4776 49.3985 60.2439 49.1787C59.9959 48.9589 59.6457 48.8853 59.3244 48.9732L55.5578 49.7794L55.3246 51.0988H60.1416C60.2587 51.0988 60.361 51.0109 60.39 50.8933L60.5361 50.0288L60.5214 50.0432ZM67.47 51.9193H66.7257C66.6086 52.4474 66.3021 52.9162 65.8642 53.2239C65.266 53.6053 64.5797 53.7955 63.8791 53.7663C63.4993 53.7663 63.12 53.7224 62.7402 53.6344L63.0467 52.8722C63.3094 52.931 64.7258 53.1508 65.4849 52.6232C65.7038 52.4474 65.8642 52.2127 65.9371 51.9341H63.7915C62.9739 51.9341 62.3023 51.2747 62.3023 50.4537C62.3023 50.3366 62.3023 50.219 62.3461 50.102C62.5503 49.0908 63.4117 48.3429 64.4336 48.2846H67.3825L66.8861 51.1131H67.6162L67.47 51.9193ZM63.9372 51.1131H66.0979L66.4482 49.076H64.2875C63.7182 49.1051 63.2366 49.5304 63.12 50.0871C63.0177 50.5416 63.2951 50.9813 63.733 51.084C63.7915 51.084 63.8643 51.0988 63.9229 51.1131M71.2071 51.0988L71.061 51.905H70.2438C69.8497 51.905 69.4847 51.7291 69.28 51.3917C69.003 51.6995 68.5942 51.8902 68.1706 51.905H67.3096L67.4553 51.0988H68.2292C68.609 51.0988 68.9297 50.8054 68.9883 50.4389L69.2362 48.9732H70.0539L69.7912 50.4537C69.7474 50.7614 69.9663 51.0548 70.2876 51.0988H71.2071ZM69.7326 47.7421C69.6746 48.0203 69.4409 48.2258 69.1487 48.2406C68.9297 48.2406 68.7403 48.0648 68.7403 47.8301C68.7403 47.8005 68.7403 47.7714 68.7403 47.7421C68.7984 47.4636 69.0321 47.273 69.3095 47.2584C69.5285 47.2584 69.7184 47.4196 69.7184 47.6395C69.7184 47.6688 69.7184 47.7128 69.7184 47.7421M71.0467 47.7421C70.9882 48.0203 70.7545 48.2258 70.4627 48.2406C70.2438 48.2406 70.0539 48.0648 70.0539 47.8301C70.0539 47.8005 70.0539 47.7714 70.0539 47.7421C70.1124 47.4636 70.3461 47.273 70.6231 47.2584C70.842 47.2584 71.0319 47.4196 71.0319 47.6395C71.0319 47.6688 71.0319 47.7128 71.0319 47.7421M70.9006 51.9193L71.0467 51.1131H71.7911C72.0247 51.1131 72.2146 50.9373 72.2727 50.7031L73.0613 46.1737H73.8642L73.0756 50.7031C72.9443 51.3917 72.3603 51.8902 71.6597 51.9193H70.9006Z" fill="#DA2040"/>
<path d="M11.311 40.1787L11.0337 41.747H0.260254L0.537617 40.1787H1.51569L2.58136 34.1544H4.14335L3.53024 37.6136L7.90965 36.7341C8.63959 36.5436 9.42788 36.7341 9.9972 37.2178C10.5519 37.7308 10.8001 38.493 10.6541 39.2259L10.4936 40.1787H11.3256H11.311ZM8.97532 39.8562L9.09211 39.2259C9.15051 38.9474 9.04833 38.6542 8.84396 38.4637C8.62498 38.2585 8.30382 38.1852 8.01188 38.2878L3.26747 39.2259L3.10689 40.1787H8.62498C8.81474 40.1787 8.97532 40.0467 9.00454 39.8562M14.8584 40.1787L14.581 41.747H10.6979L10.9753 40.1787H14.8584ZM20.1867 40.1787L19.8947 41.747H18.5079C18.0408 41.747 17.5736 41.5858 17.2233 41.278C16.8291 41.5712 16.3474 41.7323 15.8511 41.747H14.3767L14.654 40.1787H15.9386C16.2744 40.1787 16.5518 39.9295 16.6247 39.5924L16.9459 37.7162H18.5225L18.1868 39.607C18.1868 39.9148 18.4349 40.1787 18.7415 40.1787H20.1721H20.1867ZM16.6394 43.2861C16.5372 43.7844 16.1138 44.1509 15.6175 44.1655C15.2234 44.1655 14.9022 43.8724 14.8876 43.4766C14.8876 43.418 14.8876 43.3447 14.9022 43.2861C15.0044 42.8024 15.4277 42.4359 15.924 42.4213C16.3182 42.4213 16.6394 42.7144 16.654 43.1102C16.654 43.1688 16.654 43.2274 16.6394 43.2861ZM18.7999 43.2861C18.6977 43.7844 18.2743 44.1509 17.778 44.1655C17.3839 44.1655 17.0627 43.8724 17.0481 43.4766C17.0481 43.418 17.0481 43.3447 17.0627 43.2861C17.1649 42.8024 17.5882 42.4359 18.0846 42.4213C18.4787 42.4213 18.7999 42.7144 18.8145 43.1102C18.8145 43.1688 18.8145 43.2274 18.7999 43.2861ZM31.8652 36.7195L31.4419 39.1233C31.1353 40.6037 29.8652 41.6884 28.3617 41.747H27.8653C27.223 41.747 26.6099 41.4685 26.1865 40.9849C25.6318 41.4539 24.9311 41.7323 24.2012 41.747H23.6319C23.0333 41.747 22.4494 41.5125 22.0407 41.0728L21.9969 41.1167C21.5297 41.5271 20.9312 41.747 20.3181 41.747H19.705L19.9823 40.1787H20.5954C21.0042 40.1787 21.3399 39.8708 21.4129 39.4898L21.7195 37.7308H23.2815L23.0333 39.1087C22.9165 39.5777 23.2085 40.0467 23.6756 40.164C23.7486 40.1787 23.8216 40.1933 23.9092 40.1933H24.4785C25.1063 40.1933 25.6318 39.7389 25.7486 39.1233L25.9967 37.7455H27.5441L27.296 39.138C27.1938 39.5924 27.4712 40.0614 27.9383 40.164C28.0113 40.1787 28.0843 40.1933 28.1573 40.1787H28.6098C29.223 40.164 29.7339 39.7243 29.8507 39.1233L30.274 36.7195H31.8506H31.8652ZM39.6752 41.747H38.7263C38.5365 42.4946 38.084 43.1542 37.4563 43.6085C36.595 44.1655 35.5731 44.4441 34.5513 44.4C33.9819 44.4 33.4126 44.3415 32.8579 44.2095L33.471 42.6998C34.0257 42.817 35.8213 43.0369 36.7118 42.392C36.9307 42.2307 37.0913 42.0108 37.1789 41.7617H34.6972C33.5586 41.791 32.6243 40.8969 32.5805 39.7536C32.5805 39.5777 32.5805 39.4018 32.6243 39.2259C32.9017 37.8041 34.1279 36.7634 35.5731 36.7195H39.646L39.0329 40.1787H39.9525L39.6752 41.7617V41.747ZM34.96 40.208H37.4709L37.8067 38.2731H35.2958C34.741 38.3025 34.2885 38.6983 34.1717 39.2406C34.0695 39.6656 34.3177 40.0907 34.741 40.1933C34.7994 40.208 34.8724 40.2226 34.9454 40.208M43.6313 40.1787L43.3539 41.747H39.4708L39.7482 40.1787H43.6313ZM43.1642 41.747L43.4415 40.1787H44.5509C44.697 40.1787 44.8283 40.0614 44.8575 39.9148L45.8648 34.1544H47.4268L46.4195 39.9148C46.2152 40.9408 45.3247 41.703 44.2736 41.747H43.1642ZM49.1204 34.1544H50.6824L49.3536 41.747H47.7915L49.1204 34.1544ZM60.8569 36.7048L60.3605 39.4898C60.2877 39.7976 60.4776 40.1054 60.7841 40.164C60.8279 40.164 60.8864 40.164 60.9302 40.164H61.6894L61.4119 41.7324H60.6528C60.1416 41.7324 59.6309 41.5271 59.2659 41.1607L59.2221 41.1167C58.7109 41.5271 58.0837 41.7324 57.4411 41.7324H55.3242C54.2005 41.7764 53.2367 40.9115 53.1787 39.7682C53.1787 39.5777 53.1787 39.4018 53.2225 39.2259C53.5142 37.7895 54.7407 36.7341 56.2004 36.6755H60.8427L60.8569 36.7048ZM57.7186 40.2519C58.2878 40.208 58.7547 39.7976 58.8718 39.2406L59.047 38.2731H55.9519C55.3975 38.2878 54.9158 38.6983 54.8135 39.2406C54.7112 39.6803 54.9739 40.12 55.3975 40.2226C55.4555 40.2226 55.5288 40.2519 55.6017 40.2519H57.7186ZM57.85 34.9606C57.7477 35.4589 57.3245 35.8253 56.8281 35.84C56.4341 35.84 56.1128 35.5469 56.0981 35.1511C56.0981 35.0924 56.0981 35.0192 56.1128 34.9606C56.2147 34.4768 56.6382 34.1104 57.1346 34.0957C57.5287 34.0957 57.85 34.3889 57.8643 34.7846C57.8643 34.8433 57.8643 34.9019 57.85 34.9606ZM59.996 34.9606C59.8936 35.4589 59.4701 35.8253 58.9741 35.84C58.5796 35.84 58.2588 35.5469 58.2293 35.1511C58.2293 35.0924 58.2293 35.0192 58.244 34.9606C58.3464 34.4768 58.7695 34.1104 59.2659 34.0957C59.66 34.0957 59.9812 34.3889 59.996 34.7846C59.996 34.8433 59.996 34.9019 59.9812 34.9606M69.6889 41.747H61.222L61.4995 40.1787H69.1344C69.28 40.1787 69.4114 40.0614 69.4409 39.9148L69.6451 38.7129C69.6889 38.4784 69.5428 38.2585 69.3238 38.1999C69.2801 38.1999 69.251 38.1999 69.222 38.1999H63.7621C62.8568 38.1999 62.5798 37.1738 63.2076 36.4996L65.6453 33.7586L66.7547 34.6674L65.0176 36.6315H69.5137C70.448 36.5875 71.2361 37.3351 71.2799 38.2731C71.2799 38.4198 71.2799 38.5663 71.2361 38.7129L70.8716 40.7796C70.7545 41.3366 70.2729 41.7323 69.7179 41.747M77.0611 40.1787L76.7837 41.747H76.0098C75.8346 41.747 75.6595 41.7177 75.4991 41.6738C75.2944 42.2894 74.9151 42.817 74.404 43.1981C73.82 43.6085 73.1489 43.8577 72.4479 43.9163C71.8639 44.0043 71.2657 43.9603 70.6817 43.8284L71.1924 42.2747C71.4698 42.3186 73.0171 42.4799 73.6011 41.9669C73.8785 41.7324 74.0537 41.3952 74.0975 41.0288L74.8566 36.6901H76.4334L75.9079 39.6656C75.8642 39.8855 75.9955 40.0907 76.2144 40.1347C76.2435 40.1347 76.2725 40.1347 76.3163 40.1347H77.0902L77.0611 40.1787ZM88.7396 36.7195L88.3161 39.1233C88.0096 40.6037 86.7398 41.6884 85.2358 41.747H84.7394C84.0974 41.747 83.4844 41.4685 83.0608 40.9849C82.5063 41.4539 81.8053 41.7323 81.0756 41.747H80.506C79.9077 41.747 79.3237 41.5125 78.9149 41.0728L78.8711 41.1167C78.4042 41.5271 77.8055 41.747 77.1925 41.747H76.5795L76.8565 40.1787H77.47C77.8783 40.1787 78.1996 39.8708 78.2871 39.4898L78.5936 37.7308H80.1557L79.9077 39.1087C79.7906 39.5777 80.0828 40.0467 80.5497 40.164C80.623 40.1787 80.6958 40.1933 80.7834 40.1933H81.3526C81.9804 40.1933 82.5063 39.7389 82.6229 39.1233L82.8709 37.7455H84.4186L84.1702 39.138C84.0683 39.5924 84.3453 40.0614 84.8127 40.164C84.8855 40.1787 84.9588 40.1933 85.0316 40.1787H85.4842C86.0972 40.164 86.6084 39.7243 86.725 39.1233L87.1481 36.7195H88.7101H88.7396ZM83.7323 35.7227C83.63 36.2211 83.2069 36.5875 82.7105 36.6022C82.3164 36.6022 81.9952 36.309 81.9804 35.9133C81.9804 35.8547 81.9804 35.7814 81.9951 35.7227C82.0975 35.239 82.5206 34.8726 83.017 34.858C83.4111 34.858 83.7323 35.1511 83.7471 35.5469C83.7471 35.6055 83.7471 35.6641 83.7323 35.7227ZM85.1482 33.7146C85.0464 34.213 84.6228 34.5794 84.1264 34.5941C83.7323 34.5941 83.4111 34.3009 83.3968 33.9052C83.3968 33.8466 83.3968 33.7733 83.4111 33.7146C83.5134 33.2309 83.9365 32.8645 84.4329 32.8498C84.827 32.8498 85.1482 33.143 85.163 33.5387C85.163 33.5974 85.163 33.656 85.1482 33.7146ZM85.8931 35.7227C85.7907 36.2211 85.3672 36.5875 84.8712 36.6022C84.4767 36.6022 84.1559 36.309 84.1411 35.9133C84.1411 35.8547 84.1412 35.7814 84.1559 35.7227C84.2578 35.239 84.6813 34.8726 85.1777 34.858C85.5718 34.858 85.8931 35.1511 85.9073 35.5469C85.9073 35.6055 85.9073 35.6641 85.8931 35.7227Z" fill="#1B3F92"/>
<path d="M57.0762 6.04097C59.295 8.94316 60.244 12.6076 59.7186 16.228C59.4701 18.0602 58.8281 19.8045 57.8353 21.3729C56.9448 22.7653 55.8207 24.0112 54.5071 25.008C53.5143 25.7555 52.4339 26.3711 51.2807 26.8548C50.6092 27.1479 50.5654 27.1333 50.1565 26.5616C49.1495 25.1252 48.1862 23.6741 47.1349 22.2816C46.7846 21.8272 46.5072 21.3289 46.1569 20.8012C45.208 22.179 44.3321 23.5129 43.3978 24.8028C42.9015 25.4917 42.4343 26.1952 41.9234 26.8841C41.8212 27.0453 41.6168 27.0894 41.4562 27.0014C40.5512 26.6789 39.6753 26.2538 38.8578 25.7408C37.9965 25.1985 37.2082 24.5829 36.4783 23.8793C35.8214 23.2491 35.2229 22.5455 34.7265 21.7686C34.274 21.0651 33.8798 20.3322 33.5441 19.57C31.7193 15.3193 32.1864 10.4089 34.7849 6.58331C34.8433 6.48071 34.8579 6.48071 35.1791 6.36344C34.9893 6.83248 34.7703 7.24288 34.5952 7.66795C33.8798 9.42687 33.5879 11.3324 33.7485 13.2232C33.8798 14.8062 34.3178 16.3306 35.0477 17.7378C35.8068 19.2328 36.8725 20.552 38.1571 21.622C38.7118 22.0764 39.3103 22.4722 39.8943 22.8826C40.0402 23.0145 40.2738 22.9998 40.4052 22.8533C40.4052 22.8533 40.4344 22.824 40.4344 22.8093C41.2519 21.8566 42.0986 20.9184 42.9453 19.995C43.9234 18.925 44.916 17.855 45.8795 16.785C46.0839 16.5651 46.2298 16.6238 46.405 16.7997C47.3685 17.8844 48.3613 18.9397 49.3099 20.0537C50.1128 20.9771 51.0032 21.8126 51.7481 22.7946C51.9813 23.1024 52.2588 22.9559 52.4777 22.7946C53.6309 22.0764 54.6675 21.2116 55.5727 20.2002C55.9815 19.7312 56.3466 19.2328 56.6673 18.7052C57.514 17.3274 58.0837 15.803 58.3607 14.2199C58.6092 12.6955 58.5654 11.1271 58.2589 9.60277C58.0104 8.35685 57.5873 7.15495 57.0034 6.04097" fill="#2D2F64"/>
<path d="M55.8063 19.2182C55.5436 19.5261 55.2513 19.8045 54.9448 20.0684C55.5436 19.2476 56.0543 18.3827 56.4778 17.4593C56.5507 17.3127 56.5506 17.2541 56.434 17.1369C55.7768 16.5359 55.091 15.9936 54.3899 15.4365C53.5142 14.7476 52.5652 14.2053 51.6309 13.6044C51.2663 13.3698 51.1788 13.4578 51.1202 13.8535C50.8428 15.5245 50.7552 17.2101 50.8428 18.8958C50.8428 19.0424 50.8428 19.1889 50.8428 19.3502C50.6386 19.3062 50.6529 19.145 50.6386 19.0424C50.2002 17.1662 50.1127 15.2313 50.3611 13.3405C50.4049 13.0914 50.3173 12.9887 50.0984 12.8568C48.989 12.2998 47.821 11.8161 46.6239 11.4351C46.2736 11.3031 46.0546 11.2884 45.9816 11.8015C45.8794 12.5197 45.7042 13.2379 45.4415 13.9122C45.4415 13.1646 45.4123 12.4171 45.4415 11.6695C45.4561 11.2591 45.3977 11.0539 44.9451 10.9806C43.6751 10.6728 42.405 10.453 41.1058 10.3064C40.7993 10.3064 40.7116 10.365 40.6825 10.6582C40.5949 11.5377 40.5803 12.4318 40.6241 13.3112C40.6387 13.5164 40.6241 13.7216 40.5219 13.9122C40.4489 13.663 40.3759 13.3992 40.3467 13.15C40.2591 12.3145 40.1716 11.479 40.1569 10.6582C40.1569 10.2478 39.9964 10.1598 39.6606 10.1452C38.3322 10.0426 36.9892 9.9986 35.6461 10.0279C35.4855 10.0279 35.2958 10.1158 35.1352 9.98393C35.106 9.88133 35.1498 9.85199 35.2228 9.83737C36.6972 9.50023 38.2008 9.38296 39.6898 9.50023C40.0986 9.54419 40.2007 9.39763 40.2007 9.04586C40.2737 7.668 40.6241 6.31953 41.2226 5.08828C41.354 4.79511 41.281 4.69252 40.9744 4.73649C39.5584 4.88308 38.1716 5.10296 36.7847 5.41076C36.2154 5.54265 36.0841 6.14363 35.7629 6.52473C35.4418 6.9791 35.179 7.49214 35.0038 8.03444C34.9454 8.18105 34.9016 8.38625 34.6972 8.47418C34.6096 8.26898 34.741 8.09307 34.7994 7.93184C35.398 5.87979 36.6096 4.06224 38.2738 2.7284C39.4562 1.76099 40.8139 1.02811 42.2737 0.573722C43.9524 0.0313902 45.7334 -0.129845 47.4852 0.104677C48.9595 0.309884 50.3759 0.76427 51.6747 1.46784C53.1349 2.23004 54.4194 3.28539 55.4703 4.5606C56.3317 5.60128 57.0033 6.7739 57.4559 8.04911C57.9813 9.47093 58.244 10.966 58.215 12.4757C58.2002 13.3405 58.0689 14.2053 57.8642 15.0408C57.5139 16.5799 56.7986 18.031 55.7625 19.2182M43.8795 4.70718C43.6751 4.70718 43.4561 4.70718 43.2372 4.70718C42.9014 4.63389 42.5802 4.80978 42.4634 5.13225C42.0985 5.76252 41.7773 6.4368 41.5 7.11104C41.2226 7.81462 41.0182 8.53282 40.8868 9.28036C40.8722 9.48556 40.8577 9.63212 41.1204 9.64679C42.4926 9.77873 43.8356 10.0132 45.1495 10.3797C45.4852 10.4676 45.5729 10.409 45.6458 10.0426C45.7772 9.14846 45.9962 8.26898 46.2736 7.41884C46.5217 6.75923 46.8137 6.12896 47.1348 5.51336C47.237 5.30816 47.2662 5.20555 46.9889 5.14692C45.967 4.89771 44.9159 4.7365 43.8503 4.70718M52.5214 7.75598C52.4776 7.59475 52.361 7.53611 52.2587 7.4628C51.2368 6.72993 50.1127 6.14363 48.9304 5.70388C48.6677 5.57199 48.3612 5.67459 48.2151 5.93843C48.2151 5.93843 48.2151 5.9531 48.2151 5.96772C47.4706 7.16967 46.9013 8.47418 46.5363 9.83737C46.3028 10.6728 46.3319 10.6875 47.1932 10.9074C47.2954 10.9367 47.383 10.966 47.4706 11.01C48.3612 11.3031 49.2369 11.6403 50.0836 12.036C50.3759 12.1826 50.5653 12.1826 50.6824 11.7429C51.0326 10.4383 51.5871 9.19243 52.3462 8.07845C52.4195 7.97585 52.4776 7.85858 52.5509 7.75598M57.3683 14.0734C57.3388 13.9855 57.3245 13.9122 57.295 13.8389C56.93 12.9741 56.4778 12.1386 55.9376 11.3617C55.3827 10.5409 54.7697 9.76406 54.0982 9.04586C53.7331 8.62074 53.4994 8.62074 53.1491 9.06049C52.7988 9.55886 52.4923 10.0865 52.2444 10.6435C51.9522 11.1712 51.7185 11.7282 51.5581 12.3145C51.4995 12.549 51.5433 12.7103 51.7623 12.7982C52.1273 12.9448 52.4486 13.1646 52.7841 13.3552C54.2148 14.0734 55.4998 15.0408 56.5797 16.2427C56.7696 16.4479 56.8281 16.5506 56.9595 16.1988C57.1346 15.4952 57.266 14.7917 57.3683 14.0881M43.5291 3.73977C43.6021 3.85703 43.6897 3.81306 43.7773 3.81306C44.8575 3.81306 45.9378 3.94498 46.9889 4.1795C47.3392 4.26745 47.8939 4.47266 48.2589 3.93032C48.6825 3.32936 49.2079 2.81634 49.7771 2.36196C50.0251 2.1714 50.0689 2.0688 49.7333 1.90757C49.1056 1.67305 48.4631 1.49716 47.8063 1.36524C47.1348 1.07208 46.3319 1.16003 45.7626 1.62907C44.9451 2.25935 44.2006 2.96292 43.5291 3.73977ZM49.2955 4.63389C49.9523 5.01498 50.6676 5.17621 51.2663 5.60128C51.8356 5.92376 52.3757 6.29019 52.9159 6.6713C53.0473 6.81786 53.2662 6.81786 53.4119 6.6713C53.4414 6.642 53.4704 6.59799 53.4851 6.5687C53.7479 6.20226 54.0691 5.86512 54.4047 5.57199C54.5655 5.42538 54.5946 5.33745 54.4047 5.14692C53.7916 4.50197 53.1349 3.90101 52.4195 3.37333C51.9959 3.05086 51.5728 2.78703 51.0031 3.2121C50.3611 3.60785 49.7771 4.0769 49.266 4.63389M37.4417 4.61923C37.8359 4.51663 38.2008 4.39937 38.6095 4.34074C39.4124 4.1795 40.23 4.0769 41.0474 4.03292C41.6313 4.03292 42.1569 3.63717 42.3612 3.08018C42.4489 2.90429 42.5656 2.74305 42.6824 2.59648C43.0182 2.20072 43.3247 1.77565 43.6897 1.32126C41.3102 1.6877 39.1059 2.86032 37.4563 4.63389M57.3826 12.5051C57.3826 11.9481 57.3245 11.3764 57.1932 10.8194C56.9885 9.47093 56.4921 8.16638 55.7768 7.00844C55.6892 6.86187 55.6164 6.6713 55.4265 6.86187C55.0762 7.12571 54.7549 7.41884 54.4484 7.72664C54.2733 7.94651 54.3461 8.06378 54.5213 8.19567C55.1785 8.76736 55.733 9.45626 56.1566 10.2184C56.6235 10.9367 57.0323 11.6989 57.3826 12.4904" fill="#F32446"/>
<path d="M46.1716 22.2817L52.186 30.2848C51.5873 29.9184 51.0181 29.5079 50.5074 29.0536C49.1643 28.0422 47.8502 27.0015 46.5365 25.9608C46.3467 25.7849 46.0256 25.7703 45.8212 25.9608C45.8212 25.9608 45.792 25.9901 45.7774 26.0048C44.6825 26.8403 43.6023 27.6904 42.522 28.5406C41.7337 29.1562 40.96 29.7572 40.1279 30.3141L46.1716 22.2964" fill="#F32446"/>
</g>
<defs>
<clipPath id="clip0_223_783">
<rect width="89" height="54" fill="white"/>
</clipPath>
</defs>
</svg>
