<svg width="48" height="51" viewBox="0 0 48 51" fill="none" xmlns="http://www.w3.org/2000/svg">
<path fill-rule="evenodd" clip-rule="evenodd" d="M30.1547 32.875H19.0118C14.9091 32.875 11.5833 29.5491 11.5833 25.4464V14.3036C11.5833 10.2009 14.9091 6.875 19.0118 6.875H30.1547C34.2574 6.875 37.5833 10.2009 37.5833 14.3036V25.4464C37.5833 29.5491 34.2574 32.875 30.1547 32.875Z" stroke="#D0233F" stroke-width="1.5" stroke-linecap="round" stroke-linejoin="round"/>
<path d="M37.5833 15.0535C37.9975 15.0535 38.3333 14.7177 38.3333 14.3035C38.3333 13.8893 37.9975 13.5535 37.5833 13.5535V15.0535ZM11.5833 13.5535C11.169 13.5535 10.8333 13.8893 10.8333 14.3035C10.8333 14.7177 11.169 15.0535 11.5833 15.0535V13.5535ZM22.7261 24.6963C22.3119 24.6963 21.9761 25.0321 21.9761 25.4463C21.9761 25.8605 22.3119 26.1963 22.7261 26.1963V24.6963ZM26.4404 26.1963C26.8546 26.1963 27.1904 25.8605 27.1904 25.4463C27.1904 25.0321 26.8546 24.6963 26.4404 24.6963V26.1963ZM37.5833 13.5535H11.5833V15.0535H37.5833V13.5535ZM22.7261 26.1963H26.4404V24.6963H22.7261V26.1963Z" fill="#D0233F"/>
<path d="M3.22742 36.744C3.73442 36.744 4.15042 37.16 4.15042 37.654C4.15042 38.174 3.73442 38.577 3.22742 38.577C2.72042 38.577 2.30442 38.174 2.30442 37.654C2.30442 37.16 2.72042 36.744 3.22742 36.744ZM5.61942 36.744C6.13942 36.744 6.55542 37.16 6.55542 37.654C6.55542 38.174 6.13942 38.577 5.61942 38.577C5.12542 38.577 4.70942 38.174 4.70942 37.654C4.70942 37.16 5.12542 36.744 5.61942 36.744ZM8.31042 44.427C8.75242 44.427 9.10342 44.778 9.10342 45.207C9.10342 45.636 8.75242 45.987 8.32342 46H7.62142C6.91942 46 6.26942 45.649 5.87942 45.077C5.37242 45.636 4.61842 46 3.77342 46C2.10942 46 0.692422 44.674 0.692422 43.023V42.685C0.692422 40.904 2.01842 39.695 3.77342 39.695H6.89342L6.90642 43.712C6.90642 44.141 7.14042 44.427 7.62142 44.427H8.31042ZM3.77342 44.427C4.63142 44.427 5.33342 43.738 5.33342 42.88V41.294L3.77342 41.268C2.99342 41.255 2.23942 41.775 2.23942 42.685V42.958C2.23942 43.777 2.95442 44.427 3.77342 44.427ZM13.6788 44.427C14.1078 44.427 14.4588 44.765 14.4588 45.207C14.4588 45.649 14.0948 46 13.6658 46H12.6908C12.0278 46 11.4298 45.714 11.0008 45.298C10.6108 45.714 10.0388 46 9.40181 46H8.27081C7.78981 46 7.43881 45.662 7.43881 45.207C7.43881 44.765 7.78981 44.427 8.27081 44.427H9.23281C9.71381 44.427 10.1168 44.024 10.1168 43.53V40.787H11.7028V43.543C11.7548 44.037 12.1838 44.427 12.6908 44.427H13.6788ZM9.60981 47.079C10.1298 47.079 10.5458 47.495 10.5458 47.989C10.5458 48.509 10.1298 48.912 9.60981 48.912C9.11581 48.912 8.69981 48.509 8.69981 47.989C8.69981 47.495 9.11581 47.079 9.60981 47.079ZM12.0408 47.079C12.5478 47.079 12.9638 47.495 12.9638 47.989C12.9638 48.509 12.5478 48.912 12.0408 48.912C11.5338 48.912 11.1178 48.509 11.1178 47.989C11.1178 47.495 11.5338 47.079 12.0408 47.079ZM25.8213 44.44C26.2373 44.44 26.6143 44.804 26.6143 45.207C26.6143 45.649 26.2373 46 25.8213 46H25.0673C24.4433 46 23.8843 45.701 23.5463 45.259C23.0913 45.714 22.4283 46 21.7003 46C20.7903 46 20.1403 45.623 19.7243 45.09C19.1783 45.714 18.5153 46 17.6053 46C17.0203 46 16.3313 45.792 15.8633 45.272C15.5253 45.714 14.9793 46 14.3683 46H13.6273C13.1983 46 12.8343 45.649 12.8343 45.207C12.8343 44.804 13.1983 44.44 13.6273 44.44H14.3683C14.6803 44.44 14.9403 44.193 14.9403 43.868V40.982H16.4873V43.322C16.4873 43.972 16.9943 44.44 17.6963 44.44C18.4763 44.44 18.9443 43.933 18.9443 43.27V40.982H20.5043V43.322C20.5043 43.972 20.9723 44.427 21.7003 44.427C22.4803 44.427 22.9353 43.933 22.9353 43.27V39.708H24.4953L24.5083 43.868C24.5083 44.193 24.7423 44.44 25.0673 44.44H25.8213ZM31.211 44.427C31.64 44.427 31.991 44.765 31.991 45.207C31.991 45.649 31.627 46 31.198 46H30.223C29.56 46 28.962 45.714 28.533 45.298C28.143 45.714 27.571 46 26.934 46H25.803C25.322 46 24.971 45.662 24.971 45.207C24.971 44.765 25.322 44.427 25.803 44.427H26.765C27.246 44.427 27.649 44.024 27.649 43.53V40.787H29.235V43.543C29.287 44.037 29.716 44.427 30.223 44.427H31.211ZM27.142 47.079C27.662 47.079 28.078 47.495 28.078 47.989C28.078 48.509 27.662 48.912 27.142 48.912C26.648 48.912 26.232 48.509 26.232 47.989C26.232 47.495 26.648 47.079 27.142 47.079ZM29.573 47.079C30.08 47.079 30.496 47.495 30.496 47.989C30.496 48.509 30.08 48.912 29.573 48.912C29.066 48.912 28.65 48.509 28.65 47.989C28.65 47.495 29.066 47.079 29.573 47.079ZM35.1765 37.979V38.785H32.4205V37.979H32.8495C32.7715 37.81 32.7065 37.615 32.7325 37.42C32.8105 36.783 33.3175 36.276 33.9805 36.276C34.5525 36.276 35.0075 36.601 35.2025 37.121L34.5655 37.576C34.4355 37.264 34.2925 37.095 33.9805 37.095C33.7335 37.095 33.5515 37.277 33.5515 37.511C33.5515 37.68 33.6425 37.979 33.9805 37.979H35.1765ZM32.3945 46H31.1725C30.7305 46 30.3665 45.636 30.3665 45.207C30.3665 44.752 30.7305 44.427 31.1725 44.427H32.4075C32.7585 44.427 33.0055 44.167 33.0055 43.842V39.721H34.5785V43.842C34.5785 45.025 33.6035 46 32.3945 46ZM40.2506 44.427C40.6796 44.427 41.0306 44.765 41.0306 45.22C41.0306 45.662 40.6796 46 40.2506 46H39.8606C39.4316 46 39.0416 45.844 38.7556 45.623L38.7426 46.052C38.6256 47.794 37.4556 48.782 35.7656 49.094L35.1936 47.612C36.3376 47.378 37.2086 46.975 37.2086 45.688V39.721H38.7686V43.335C38.7686 43.933 39.2626 44.427 39.8606 44.427H40.2506ZM40.1986 46C39.7566 46 39.4056 45.649 39.4056 45.22C39.4056 44.778 39.7566 44.427 40.1986 44.427H40.8746C41.1866 44.427 41.4336 44.18 41.4336 43.868V36.926H43.0066V43.868C43.0066 45.038 42.0576 46 40.8876 46H40.1986ZM45.2144 46V36.9H46.7874V46H45.2144Z" fill="#D0233F"/>
</svg>
