<svg width="24" height="24" viewBox="0 0 24 24" fill="none" xmlns="http://www.w3.org/2000/svg">
<path fill-rule="evenodd" clip-rule="evenodd" d="M9.83831 5H14.1683C15.2773 5 14.6683 6.664 14.2193 7.679L13.7083 8.843L13.6393 9C14.1233 8.97651 14.6019 9.11054 15.0033 9.382C16.5047 10.7558 17.7233 12.4098 18.5903 14.251C18.9282 14.9318 19.0623 15.6958 18.9763 16.451C18.8732 18.3759 17.3289 19.9098 15.4033 20H8.60331C6.67726 19.9125 5.13066 18.3802 5.02531 16.455C4.93935 15.6998 5.07339 14.9358 5.41131 14.255C6.27941 12.412 7.49965 10.7565 9.00331 9.382C9.40472 9.11054 9.8833 8.97651 10.3673 9L10.2873 8.819L9.78731 7.679C9.34031 6.664 8.72831 5 9.83831 5Z" stroke="black" stroke-width="1.5" stroke-linecap="round" stroke-linejoin="round"/>
<path d="M13.6394 9.75C14.0536 9.75 14.3894 9.41421 14.3894 9C14.3894 8.58579 14.0536 8.25 13.6394 8.25V9.75ZM10.3674 8.25C9.9532 8.25 9.61742 8.58579 9.61742 9C9.61742 9.41421 9.9532 9.75 10.3674 9.75V8.25ZM16.3707 8.65392C16.7318 8.45107 16.8602 7.99387 16.6573 7.63272C16.4545 7.27157 15.9973 7.14324 15.6361 7.34608L16.3707 8.65392ZM13.7084 8.843L13.8496 9.57959L13.8517 9.57918L13.7084 8.843ZM10.2874 8.819L10.439 8.08444L10.4323 8.08312L10.2874 8.819ZM8.35919 7.33975C7.99454 7.14327 7.53965 7.27959 7.34317 7.64423C7.14668 8.00888 7.28301 8.46377 7.64765 8.66025L8.35919 7.33975ZM13.6394 8.25H10.3674V9.75H13.6394V8.25ZM15.6361 7.34608C14.9908 7.70854 14.2916 7.96537 13.5651 8.10682L13.8517 9.57918C14.7354 9.40713 15.5858 9.09476 16.3707 8.65392L15.6361 7.34608ZM13.5672 8.10642C12.5331 8.30467 11.4701 8.29721 10.439 8.08447L10.1359 9.55353C11.3601 9.80609 12.622 9.81495 13.8496 9.57958L13.5672 8.10642ZM10.4323 8.08312C9.70792 7.94053 9.0091 7.68995 8.35919 7.33975L7.64765 8.66025C8.4298 9.0817 9.27082 9.38327 10.1426 9.55488L10.4323 8.08312Z" fill="black"/>
<path d="M8.7079 13.2H9.3279V16H8.7079V13.2ZM12.7583 14.6C12.7583 15.004 12.5943 15.368 12.3183 15.632L12.5663 15.94L12.1583 16.264L11.8863 15.928C11.7063 16.008 11.4983 16.056 11.2823 16.056C10.3263 16.056 9.80628 15.408 9.80628 14.6C9.80628 13.796 10.3503 13.144 11.2823 13.144C12.0983 13.144 12.7583 13.796 12.7583 14.6ZM11.2823 15.48C11.3583 15.48 11.4263 15.464 11.4943 15.436L11.2343 15.112L11.6383 14.788L11.9263 15.144C12.0423 15 12.1143 14.808 12.1143 14.6C12.1143 14.116 11.7423 13.724 11.2823 13.724C10.7663 13.724 10.4543 14.116 10.4543 14.6C10.4543 15.084 10.7543 15.48 11.2823 15.48ZM14.3392 13.2C15.1192 13.2 15.6712 13.82 15.6712 14.6C15.6712 15.38 15.1192 16 14.3392 16H13.2312V13.2H14.3392ZM14.2632 15.428C14.7312 15.428 15.0232 15.064 15.0232 14.6C15.0232 14.136 14.7312 13.772 14.2632 13.772H13.8472V15.428H14.2632Z" fill="black"/>
</svg>
