<svg width="37" height="38" viewBox="0 0 37 38" fill="none" xmlns="http://www.w3.org/2000/svg">
<path fill-rule="evenodd" clip-rule="evenodd" d="M7.70825 15.56V24.81C7.70825 28.2157 10.4692 30.9767 13.8749 30.9767H23.1249C26.5307 30.9767 29.2916 28.2157 29.2916 24.81V15.56C29.2916 12.1542 26.5307 9.39333 23.1249 9.39333H13.8749C10.4692 9.39333 7.70825 12.1542 7.70825 15.56Z" stroke="#002F98" stroke-width="1.5" stroke-linecap="round" stroke-linejoin="round"/>
<path d="M20.8333 10.935C20.8333 11.3492 21.1691 11.685 21.5833 11.685C21.9975 11.685 22.3333 11.3492 22.3333 10.935H20.8333ZM22.3333 6.31C22.3333 5.89578 21.9975 5.56 21.5833 5.56C21.1691 5.56 20.8333 5.89578 20.8333 6.31H22.3333ZM14.6667 10.935C14.6667 11.3492 15.0025 11.685 15.4167 11.685C15.8309 11.685 16.1667 11.3492 16.1667 10.935H14.6667ZM16.1667 6.31C16.1667 5.89578 15.8309 5.56 15.4167 5.56C15.0025 5.56 14.6667 5.89578 14.6667 6.31H16.1667ZM23.125 16.31C23.5392 16.31 23.875 15.9742 23.875 15.56C23.875 15.1458 23.5392 14.81 23.125 14.81V16.31ZM13.875 14.81C13.4608 14.81 13.125 15.1458 13.125 15.56C13.125 15.9742 13.4608 16.31 13.875 16.31V14.81ZM23.125 20.935C23.5392 20.935 23.875 20.5992 23.875 20.185C23.875 19.7708 23.5392 19.435 23.125 19.435V20.935ZM13.875 19.435C13.4608 19.435 13.125 19.7708 13.125 20.185C13.125 20.5992 13.4608 20.935 13.875 20.935V19.435ZM18.5 25.56C18.9142 25.56 19.25 25.2242 19.25 24.81C19.25 24.3958 18.9142 24.06 18.5 24.06V25.56ZM13.875 24.06C13.4608 24.06 13.125 24.3958 13.125 24.81C13.125 25.2242 13.4608 25.56 13.875 25.56V24.06ZM22.3333 10.935V6.31H20.8333V10.935H22.3333ZM16.1667 10.935V6.31H14.6667V10.935H16.1667ZM23.125 14.81H13.875V16.31H23.125V14.81ZM23.125 19.435H13.875V20.935H23.125V19.435ZM18.5 24.06H13.875V25.56H18.5V24.06Z" fill="#002F98"/>
</svg>
