<svg width="52" height="52" viewBox="0 0 52 52" fill="none" xmlns="http://www.w3.org/2000/svg">
<path fill-rule="evenodd" clip-rule="evenodd" d="M36.3242 9.01835L40.5384 12.4482C40.9453 12.8446 41.1733 13.3896 41.17 13.9577C41.1668 14.5258 40.9325 15.0681 40.5211 15.4598L37.3187 19.3598L26.4204 32.6567C26.2317 32.8789 25.9777 33.0358 25.6946 33.1052L20.0439 34.4052C19.2941 34.4362 18.6475 33.8832 18.5619 33.1377L18.8262 27.5628C18.8458 27.2782 18.9585 27.0079 19.1469 26.7937L29.5751 14.0862L33.2476 9.60551C33.9611 8.63427 35.3032 8.37815 36.3242 9.01835Z" stroke="black" stroke-width="1.5" stroke-linecap="round" stroke-linejoin="round"/>
<path d="M10.8334 40.3979C10.4192 40.3979 10.0834 40.7337 10.0834 41.1479C10.0834 41.5621 10.4192 41.8979 10.8334 41.8979V40.3979ZM40.5167 41.8979C40.9309 41.8979 41.2667 41.5621 41.2667 41.1479C41.2667 40.7337 40.9309 40.3979 40.5167 40.3979V41.8979ZM30.2705 13.8055C30.1155 13.4214 29.6784 13.2357 29.2943 13.3908C28.9102 13.5458 28.7245 13.9829 28.8796 14.367L30.2705 13.8055ZM37.484 20.098C37.888 20.0067 38.1415 19.6052 38.0503 19.2011C37.959 18.7971 37.5575 18.5436 37.1534 18.6348L37.484 20.098ZM10.8334 41.8979H40.5167V40.3979H10.8334V41.8979ZM28.8796 14.367C29.3455 15.5214 30.3119 17.179 31.7305 18.4405C33.1623 19.7137 35.1199 20.632 37.484 20.098L37.1534 18.6348C35.403 19.0303 33.9221 18.3821 32.7273 17.3196C31.5194 16.2455 30.6712 14.7982 30.2705 13.8055L28.8796 14.367Z" fill="black"/>
</svg>
