<svg width="23" height="24" viewBox="0 0 23 24" fill="none" xmlns="http://www.w3.org/2000/svg">
<path fill-rule="evenodd" clip-rule="evenodd" d="M19.1757 4.22235C21.1389 5.82569 22.25 8.04852 22.25 10.3729C22.25 12.6972 21.1389 14.92 19.1757 16.5234L11.75 22.6739L4.32432 16.5234C2.36108 14.92 1.25 12.6972 1.25 10.3729C1.25 8.04852 2.36108 5.82569 4.32432 4.22235C8.48115 0.82436 15.0188 0.82436 19.1757 4.22235Z" stroke="#002F98" stroke-width="1.5" stroke-linecap="round" stroke-linejoin="round"/>
<path fill-rule="evenodd" clip-rule="evenodd" d="M15.9503 9.83881C15.9351 10.7806 15.484 11.6786 14.6963 12.3352C13.9085 12.9918 12.8487 13.3533 11.7501 13.3401C10.6514 13.3533 9.59156 12.9918 8.80383 12.3352C8.01611 11.6786 7.56502 10.7806 7.5498 9.83881C7.58244 7.87827 9.4628 6.31149 11.7501 6.33903C14.0373 6.31149 15.9177 7.87827 15.9503 9.83881V9.83881Z" stroke="#002F98" stroke-width="1.5" stroke-linecap="round" stroke-linejoin="round"/>
</svg>
