<svg width="29" height="29" viewBox="0 0 29 29" fill="none" xmlns="http://www.w3.org/2000/svg">
<path d="M18.1251 22.2083C17.7109 22.2083 17.3751 22.5441 17.3751 22.9583C17.3751 23.3726 17.7109 23.7083 18.1251 23.7083V22.2083ZM23.7084 16.9167C23.7084 16.5025 23.3726 16.1667 22.9584 16.1667C22.5442 16.1667 22.2084 16.5025 22.2084 16.9167H23.7084ZM10.8751 23.7083C11.2893 23.7083 11.6251 23.3726 11.6251 22.9583C11.6251 22.5441 11.2893 22.2083 10.8751 22.2083V23.7083ZM6.79175 16.9167C6.79175 16.5025 6.45596 16.1667 6.04175 16.1667C5.62753 16.1667 5.29175 16.5025 5.29175 16.9167H6.79175ZM10.8751 6.79168C11.2893 6.79168 11.6251 6.45589 11.6251 6.04168C11.6251 5.62746 11.2893 5.29168 10.8751 5.29168V6.79168ZM5.29175 12.0833C5.29175 12.4976 5.62753 12.8333 6.04175 12.8333C6.45596 12.8333 6.79175 12.4976 6.79175 12.0833H5.29175ZM18.1251 5.29168C17.7109 5.29168 17.3751 5.62746 17.3751 6.04168C17.3751 6.45589 17.7109 6.79168 18.1251 6.79168V5.29168ZM22.2084 12.0833C22.2084 12.4976 22.5442 12.8333 22.9584 12.8333C23.3726 12.8333 23.7084 12.4976 23.7084 12.0833H22.2084ZM18.1251 23.7083C21.2087 23.7083 23.7084 21.2086 23.7084 18.125H22.2084C22.2084 20.3802 20.3802 22.2083 18.1251 22.2083V23.7083ZM23.7084 18.125V16.9167H22.2084V18.125H23.7084ZM10.8751 22.2083C8.61992 22.2083 6.79175 20.3802 6.79175 18.125H5.29175C5.29175 21.2086 7.79149 23.7083 10.8751 23.7083V22.2083ZM6.79175 18.125V16.9167H5.29175V18.125H6.79175ZM10.8751 5.29168C7.79149 5.29168 5.29175 7.79142 5.29175 10.875H6.79175C6.79175 8.61985 8.61992 6.79168 10.8751 6.79168V5.29168ZM5.29175 10.875V12.0833H6.79175V10.875H5.29175ZM18.1251 6.79168C20.3802 6.79168 22.2084 8.61985 22.2084 10.875H23.7084C23.7084 7.79142 21.2087 5.29168 18.1251 5.29168V6.79168ZM22.2084 10.875V12.0833H23.7084V10.875H22.2084Z" fill="#002F98"/>
<path d="M20.5418 14.5H8.4585" stroke="#002F98" stroke-width="1.5" stroke-linecap="round" stroke-linejoin="round"/>
</svg>
