<svg width="24" height="24" viewBox="0 0 24 24" fill="none" xmlns="http://www.w3.org/2000/svg">
<path d="M1.25014 12.0007C1.25055 12.415 1.58667 12.7504 2.00089 12.75C2.4151 12.7496 2.75055 12.4135 2.75014 11.9993L1.25014 12.0007ZM3.63442 6.44476L4.26454 6.85152L4.26491 6.85095L3.63442 6.44476ZM7.98585 2.76222L7.69044 2.07285L7.68951 2.07325L7.98585 2.76222ZM13.5873 2.19084L13.7398 1.45651L13.7374 1.45602L13.5873 2.19084ZM18.5501 4.92918L18.0102 5.44974L18.0108 5.45035L18.5501 4.92918ZM20.265 9.35031C20.3795 9.7484 20.795 9.97835 21.193 9.86391C21.5911 9.74948 21.8211 9.33399 21.7067 8.9359L20.265 9.35031ZM20.26 8.95446C20.1558 9.35536 20.3963 9.76481 20.7972 9.86901C21.1981 9.9732 21.6075 9.73268 21.7117 9.33178L20.26 8.95446ZM22.726 5.42926C22.8302 5.02837 22.5897 4.61891 22.1888 4.51472C21.7879 4.41052 21.3784 4.65105 21.2742 5.05194L22.726 5.42926ZM20.7863 9.86599C21.1856 9.9763 21.5987 9.74207 21.709 9.34282C21.8193 8.94357 21.5851 8.53048 21.1858 8.42016L20.7863 9.86599ZM17.4015 7.37454C17.0023 7.26422 16.5892 7.49845 16.4789 7.8977C16.3686 8.29696 16.6028 8.71005 17.002 8.82036L17.4015 7.37454ZM22.75 11.9993C22.7496 11.585 22.4135 11.2496 21.9992 11.25C21.585 11.2504 21.2496 11.5865 21.25 12.0008L22.75 11.9993ZM20.3657 17.5552L19.7356 17.1485L19.7352 17.1491L20.3657 17.5552ZM16.0143 21.2378L16.3097 21.9272L16.3106 21.9268L16.0143 21.2378ZM10.4129 21.8092L10.2604 22.5435L10.2627 22.544L10.4129 21.8092ZM5.45001 19.0708L5.98993 18.5503L5.98934 18.5497L5.45001 19.0708ZM3.7351 14.6497C3.62067 14.2516 3.20518 14.0217 2.80709 14.1361C2.409 14.2505 2.17905 14.666 2.29348 15.0641L3.7351 14.6497ZM3.74017 15.0456C3.84436 14.6447 3.60384 14.2352 3.20295 14.131C2.80205 14.0268 2.3926 14.2674 2.2884 14.6682L3.74017 15.0456ZM1.27412 18.5708C1.16992 18.9717 1.41044 19.3811 1.81134 19.4853C2.21223 19.5895 2.62169 19.349 2.72588 18.9481L1.27412 18.5708ZM3.21404 14.1339C2.81479 14.0236 2.4017 14.2579 2.29138 14.6571C2.18106 15.0564 2.41529 15.4695 2.81455 15.5798L3.21404 14.1339ZM6.59883 16.6254C6.99808 16.7357 7.41117 16.5015 7.52149 16.1022C7.6318 15.703 7.39758 15.2899 6.99832 15.1796L6.59883 16.6254ZM2.75014 11.9993C2.74831 10.1733 3.27421 8.38567 4.26454 6.85152L3.0043 6.03801C1.85718 7.81504 1.24803 9.88567 1.25014 12.0007L2.75014 11.9993ZM4.26491 6.85095C5.23609 5.34347 6.63478 4.15979 8.28219 3.4512L7.68951 2.07325C5.76806 2.89971 4.1367 4.2803 3.00394 6.03858L4.26491 6.85095ZM8.28126 3.4516C9.9062 2.75529 11.7051 2.57179 13.4371 2.92567L13.7374 1.45602C11.706 1.04099 9.59622 1.2562 7.69044 2.07285L8.28126 3.4516ZM13.4348 2.92518C15.1791 3.28742 16.7737 4.16725 18.0102 5.44974L19.0901 4.40862C17.6441 2.90892 15.7795 1.8801 13.7398 1.45651L13.4348 2.92518ZM18.0108 5.45035C19.0699 6.5464 19.844 7.88552 20.265 9.35031L21.7067 8.9359C21.2178 7.23526 20.3191 5.68052 19.0895 4.40801L18.0108 5.45035ZM21.7117 9.33178L22.726 5.42926L21.2742 5.05194L20.26 8.95446L21.7117 9.33178ZM21.1858 8.42016L17.4015 7.37454L17.002 8.82036L20.7863 9.86599L21.1858 8.42016ZM21.25 12.0008C21.2518 13.8267 20.7259 15.6143 19.7356 17.1485L20.9958 17.962C22.143 16.185 22.7521 14.1143 22.75 11.9993L21.25 12.0008ZM19.7352 17.1491C18.764 18.6565 17.3654 19.8402 15.7179 20.5488L16.3106 21.9268C18.2321 21.1003 19.8634 19.7197 20.9962 17.9614L19.7352 17.1491ZM15.7189 20.5484C14.0939 21.2447 12.2951 21.4282 10.563 21.0743L10.2627 22.544C12.2942 22.959 14.4039 22.7438 16.3097 21.9272L15.7189 20.5484ZM10.5654 21.0748C8.82099 20.7126 7.22643 19.8328 5.98993 18.5503L4.91008 19.5914C6.356 21.0911 8.22061 22.1199 10.2604 22.5435L10.5654 21.0748ZM5.98934 18.5497C4.9302 17.4536 4.15617 16.1145 3.7351 14.6497L2.29348 15.0641C2.78235 16.7648 3.68101 18.3195 4.91067 19.592L5.98934 18.5497ZM2.2884 14.6682L1.27412 18.5708L2.72588 18.9481L3.74017 15.0456L2.2884 14.6682ZM2.81455 15.5798L6.59883 16.6254L6.99832 15.1796L3.21404 14.1339L2.81455 15.5798Z" fill="#002F98"/>
</svg>
