<svg width="27" height="17" viewBox="0 0 27 17" fill="none" xmlns="http://www.w3.org/2000/svg">
<path fill-rule="evenodd" clip-rule="evenodd" d="M11.049 4.40415C9.2699 7.15543 9.61711 10.7692 11.8875 13.1314C14.1214 15.4605 17.7152 15.8248 20.3711 13.9914C20.9294 13.6071 21.427 13.1415 21.8474 12.61C22.2608 12.0874 22.5969 11.5082 22.8454 10.89C23.3553 9.62032 23.4872 8.2303 23.2252 6.8874C22.9673 5.55688 22.3273 4.33035 21.3834 3.35781C20.4537 2.39661 19.2563 1.73736 17.947 1.46581C16.6428 1.19933 15.2884 1.33684 14.0644 1.85998C12.8288 2.38952 11.779 3.27527 11.049 4.40415Z" stroke="#002F98" stroke-width="1.5" stroke-linecap="round" stroke-linejoin="round"/>
<path d="M22.2853 12.002C21.9506 11.7581 21.4814 11.8317 21.2375 12.1665C20.9936 12.5013 21.0673 12.9704 21.4021 13.2144L22.2853 12.002ZM25.5999 16.2727C25.9347 16.5166 26.4039 16.443 26.6478 16.1082C26.8917 15.7734 26.818 15.3043 26.4832 15.0604L25.5999 16.2727ZM4.54159 9.24988C4.9558 9.24988 5.29158 8.91409 5.29158 8.49988C5.29158 8.08566 4.9558 7.74988 4.54159 7.74988V9.24988ZM0.958252 7.74988C0.544038 7.74988 0.208252 8.08566 0.208252 8.49988C0.208252 8.91409 0.544038 9.24988 0.958252 9.24988V7.74988ZM4.54159 14.6249C4.9558 14.6249 5.29158 14.2891 5.29158 13.8749C5.29158 13.4607 4.9558 13.1249 4.54159 13.1249V14.6249ZM0.958252 13.1249C0.544038 13.1249 0.208252 13.4607 0.208252 13.8749C0.208252 14.2891 0.544038 14.6249 0.958252 14.6249V13.1249ZM6.33325 3.87488C6.74747 3.87488 7.08325 3.53909 7.08325 3.12488C7.08325 2.71066 6.74747 2.37488 6.33325 2.37488V3.87488ZM0.958252 2.37488C0.544038 2.37488 0.208252 2.71066 0.208252 3.12488C0.208252 3.53909 0.544038 3.87488 0.958252 3.87488V2.37488ZM21.4021 13.2144L25.5999 16.2727L26.4832 15.0604L22.2853 12.002L21.4021 13.2144ZM4.54159 7.74988H0.958252V9.24988H4.54159V7.74988ZM4.54159 13.1249H0.958252V14.6249H4.54159V13.1249ZM6.33325 2.37488H0.958252V3.87488H6.33325V2.37488Z" fill="#002F98"/>
</svg>
