<svg width="23" height="23" viewBox="0 0 23 23" fill="none" xmlns="http://www.w3.org/2000/svg">
<path fill-rule="evenodd" clip-rule="evenodd" d="M3.64061 16.8124C2.36188 15.5067 1.49457 13.8543 1.14626 12.0603C0.795078 10.2612 0.975413 8.39874 1.66524 6.70044C2.34918 5.01168 3.51685 3.56264 5.0216 2.53531C8.07463 0.450145 12.0938 0.450145 15.1469 2.53531C16.6516 3.56264 17.8193 5.01168 18.5032 6.70044C19.193 8.39874 19.3734 10.2612 19.0222 12.0603C18.6739 13.8543 17.8066 15.5067 16.5278 16.8124C14.8344 18.5502 12.5107 19.5303 10.0842 19.5303C7.65772 19.5303 5.33409 18.5502 3.64061 16.8124V16.8124Z" stroke="#002F98" stroke-width="1.5" stroke-linecap="round" stroke-linejoin="round"/>
<path d="M10.1324 4.58545C9.72049 4.62909 9.42195 4.99839 9.4656 5.4103C9.50925 5.82221 9.87855 6.12074 10.2905 6.0771L10.1324 4.58545ZM13.1625 7.76907C13.324 8.15051 13.7641 8.32882 14.1455 8.16734C14.527 8.00586 14.7053 7.56573 14.5438 7.18429L13.1625 7.76907ZM17.1922 16.1396C16.8991 15.847 16.4242 15.8474 16.1316 16.1405C15.8389 16.4337 15.8393 16.9086 16.1325 17.2012L17.1922 16.1396ZM21.1419 22.2017C21.435 22.4944 21.9099 22.4939 22.2026 22.2008C22.4952 21.9076 22.4948 21.4328 22.2016 21.1401L21.1419 22.2017ZM10.2905 6.0771C11.5159 5.94725 12.6821 6.63426 13.1625 7.76907L14.5438 7.18429C13.8059 5.44124 12.0147 4.386 10.1324 4.58545L10.2905 6.0771ZM16.1325 17.2012L21.1419 22.2017L22.2016 21.1401L17.1922 16.1396L16.1325 17.2012Z" fill="#002F98"/>
</svg>
