<svg width="56" height="56" viewBox="0 0 56 56" fill="none" xmlns="http://www.w3.org/2000/svg">
<path d="M33.1607 20.4683C32.8671 20.1762 32.3922 20.1774 32.1 20.471C31.8079 20.7646 31.809 21.2395 32.1027 21.5317L33.1607 20.4683ZM39.1377 28.5317C39.4313 28.8238 39.9062 28.8226 40.1983 28.529C40.4905 28.2354 40.4893 27.7605 40.1957 27.4683L39.1377 28.5317ZM40.1957 28.5317C40.4893 28.2395 40.4905 27.7646 40.1983 27.471C39.9062 27.1774 39.4313 27.1762 39.1377 27.4683L40.1957 28.5317ZM32.1027 34.4683C31.809 34.7605 31.8079 35.2354 32.1 35.529C32.3922 35.8226 32.8671 35.8238 33.1607 35.5317L32.1027 34.4683ZM39.6667 28.75C40.0809 28.75 40.4167 28.4142 40.4167 28C40.4167 27.5858 40.0809 27.25 39.6667 27.25V28.75ZM7 27.25C6.58579 27.25 6.25 27.5858 6.25 28C6.25 28.4142 6.58579 28.75 7 28.75V27.25ZM32.1027 21.5317L39.1377 28.5317L40.1957 27.4683L33.1607 20.4683L32.1027 21.5317ZM39.1377 27.4683L32.1027 34.4683L33.1607 35.5317L40.1957 28.5317L39.1377 27.4683ZM39.6667 27.25H7V28.75H39.6667V27.25Z" fill="black"/>
<path d="M21 35C21 40.1547 25.1787 44.3334 30.3333 44.3334H39.6667C44.8213 44.3334 49 40.1547 49 35V21C49 15.8454 44.8213 11.6667 39.6667 11.6667H30.3333C25.1787 11.6667 21 15.8454 21 21" stroke="black" stroke-width="1.5" stroke-linecap="round" stroke-linejoin="round"/>
<path d="M33.1607 20.4683C32.8671 20.1762 32.3922 20.1774 32.1 20.471C31.8079 20.7646 31.809 21.2395 32.1027 21.5317L33.1607 20.4683ZM39.1377 28.5317C39.4313 28.8238 39.9062 28.8226 40.1983 28.529C40.4905 28.2354 40.4893 27.7605 40.1957 27.4683L39.1377 28.5317ZM40.1957 28.5317C40.4893 28.2395 40.4905 27.7646 40.1983 27.471C39.9062 27.1774 39.4313 27.1762 39.1377 27.4683L40.1957 28.5317ZM32.1027 34.4683C31.809 34.7605 31.8079 35.2354 32.1 35.529C32.3922 35.8226 32.8671 35.8238 33.1607 35.5317L32.1027 34.4683ZM39.6667 28.75C40.0809 28.75 40.4167 28.4142 40.4167 28C40.4167 27.5858 40.0809 27.25 39.6667 27.25V28.75ZM7 27.25C6.58579 27.25 6.25 27.5858 6.25 28C6.25 28.4142 6.58579 28.75 7 28.75V27.25ZM32.1027 21.5317L39.1377 28.5317L40.1957 27.4683L33.1607 20.4683L32.1027 21.5317ZM39.1377 27.4683L32.1027 34.4683L33.1607 35.5317L40.1957 28.5317L39.1377 27.4683ZM39.6667 27.25H7V28.75H39.6667V27.25Z" fill="black"/>
<path d="M21 35C21 40.1547 25.1787 44.3334 30.3333 44.3334H39.6667C44.8213 44.3334 49 40.1547 49 35V21C49 15.8454 44.8213 11.6667 39.6667 11.6667H30.3333C25.1787 11.6667 21 15.8454 21 21" stroke="black" stroke-width="1.5" stroke-linecap="round" stroke-linejoin="round"/>
</svg>
