<svg width="29" height="28" viewBox="0 0 29 28" fill="none" xmlns="http://www.w3.org/2000/svg">
<path d="M7.77903 11.4681C8.08231 11.186 8.09947 10.7114 7.81736 10.4081C7.53524 10.1049 7.06067 10.0877 6.75739 10.3698L7.77903 11.4681ZM3.11426 13.7587C2.81098 14.0408 2.79382 14.5153 3.07593 14.8186C3.35805 15.1219 3.83261 15.1391 4.1359 14.857L3.11426 13.7587ZM4.1359 13.7587C3.83261 13.4765 3.35805 13.4937 3.07593 13.797C2.79382 14.1003 2.81098 14.5748 3.11426 14.857L4.1359 13.7587ZM6.75739 18.2458C7.06067 18.5279 7.53524 18.5108 7.81736 18.2075C8.09947 17.9042 8.08231 17.4296 7.77903 17.1475L6.75739 18.2458ZM3.62508 13.5578C3.21087 13.5578 2.87508 13.8936 2.87508 14.3078C2.87508 14.722 3.21087 15.0578 3.62508 15.0578V13.5578ZM20.5417 15.0578C20.956 15.0578 21.2917 14.722 21.2917 14.3078C21.2917 13.8936 20.956 13.5578 20.5417 13.5578V15.0578ZM6.75739 10.3698L3.11426 13.7587L4.1359 14.857L7.77903 11.4681L6.75739 10.3698ZM3.11426 14.857L6.75739 18.2458L7.77903 17.1475L4.1359 13.7587L3.11426 14.857ZM3.62508 15.0578L20.5417 15.0578V13.5578L3.62508 13.5578V15.0578Z" fill="#002F98"/>
<path d="M10.875 17.6967C10.875 20.1921 13.039 22.2151 15.7083 22.2151H20.5417C23.211 22.2151 25.375 20.1921 25.375 17.6967V10.919C25.375 8.4235 23.211 6.40051 20.5417 6.40051H15.7083C13.039 6.40051 10.875 8.4235 10.875 10.919" stroke="#002F98" stroke-width="1.5" stroke-linecap="round" stroke-linejoin="round"/>
</svg>
