<svg width="49" height="49" viewBox="0 0 49 49" fill="none" xmlns="http://www.w3.org/2000/svg">
<path fill-rule="evenodd" clip-rule="evenodd" d="M6.125 14.2917V34.7084C6.125 36.9635 7.95317 38.7917 10.2083 38.7917H38.7917C41.0468 38.7917 42.875 36.9635 42.875 34.7084V14.2917C42.875 12.0365 41.0468 10.2084 38.7917 10.2084H10.2083C7.95317 10.2084 6.125 12.0365 6.125 14.2917Z" stroke="black" stroke-width="1.5" stroke-linecap="round" stroke-linejoin="round"/>
<path d="M30.625 20.4167H36.75" stroke="black" stroke-width="1.5" stroke-linecap="round"/>
<path d="M30.625 26.5417H36.75" stroke="black" stroke-width="1.5" stroke-linecap="round"/>
<path fill-rule="evenodd" clip-rule="evenodd" d="M22.4583 20.4167C22.4583 22.6719 20.6301 24.5 18.375 24.5C16.1198 24.5 14.2916 22.6719 14.2916 20.4167C14.2916 18.1615 16.1198 16.3334 18.375 16.3334C19.4579 16.3334 20.4965 16.7636 21.2623 17.5294C22.0281 18.2951 22.4583 19.3337 22.4583 20.4167Z" stroke="black" stroke-width="1.5" stroke-linecap="round" stroke-linejoin="round"/>
<path d="M10.2083 32.6667C15.8903 26.262 22.5645 28.2751 26.5416 32.6667" stroke="black" stroke-width="1.5" stroke-linecap="round"/>
</svg>
