<svg width="30" height="34" viewBox="0 0 30 34" fill="none" xmlns="http://www.w3.org/2000/svg">
<path d="M28.2871 17.7381C28.7013 17.7381 29.0371 17.4023 29.0371 16.9881C29.0371 16.5739 28.7013 16.2381 28.2871 16.2381V17.7381ZM28.3944 23.6798C28.8086 23.6798 29.1444 23.344 29.1444 22.9298C29.1444 22.5155 28.8086 22.1798 28.3944 22.1798V23.6798ZM29.027 16.8658C28.9595 16.4571 28.5734 16.1806 28.1647 16.2481C27.7561 16.3157 27.4795 16.7017 27.5471 17.1104L29.027 16.8658ZM28.427 18.692H29.177V18.692L28.427 18.692ZM27.6468 22.8624C27.6138 23.2753 27.9218 23.6368 28.3347 23.6697C28.7476 23.7027 29.1091 23.3947 29.142 22.9818L27.6468 22.8624ZM27.5468 17.1084C27.6132 17.5173 27.9986 17.7948 28.4074 17.7284C28.8163 17.6619 29.0938 17.2766 29.0273 16.8677L27.5468 17.1084ZM21.2876 8.12585C20.8899 8.01033 20.4737 8.23915 20.3582 8.63693C20.2427 9.0347 20.4715 9.45081 20.8693 9.56633L21.2876 8.12585ZM29.1424 22.9844C29.1726 22.5713 28.8621 22.2119 28.449 22.1817C28.0359 22.1516 27.6765 22.462 27.6464 22.8751L29.1424 22.9844ZM18.3645 32.3214V33.0714L18.3699 33.0714L18.3645 32.3214ZM11.6561 32.3214L11.6502 33.0714H11.6561V32.3214ZM1.59364 22.0998L2.34364 22.1057V22.0998H1.59364ZM1.59364 18.692H2.34364L2.34363 18.6913L1.59364 18.692ZM2.9303 15.3775C3.07288 14.9886 2.8732 14.5578 2.4843 14.4152C2.0954 14.2726 1.66455 14.4723 1.52197 14.8612L2.9303 15.3775ZM20.8739 9.56712C21.2722 9.68113 21.6874 9.45074 21.8014 9.05253C21.9154 8.65431 21.685 8.23907 21.2868 8.12506L20.8739 9.56712ZM18.3645 8.46276L18.3657 7.71276H18.3645V8.46276ZM11.6561 8.46276V7.71275L11.6527 7.71277L11.6561 8.46276ZM1.5206 14.8649C1.3801 15.2546 1.58207 15.6844 1.97172 15.8249C2.36137 15.9654 2.79116 15.7634 2.93167 15.3738L1.5206 14.8649ZM20.4239 9.20882C20.6243 9.57137 21.0806 9.70287 21.4431 9.50254C21.8057 9.30221 21.9372 8.84591 21.7368 8.48336L20.4239 9.20882ZM19.5087 6.00176L18.8452 6.35139C18.8475 6.35578 18.8499 6.36015 18.8523 6.36449L19.5087 6.00176ZM14.5151 1.96776L14.3128 2.68995L14.5151 1.96776ZM8.15247 2.82009L7.76719 2.17661L7.76479 2.17806L8.15247 2.82009ZM5.7528 4.26909L5.36507 3.62697L5.35442 3.63364L5.7528 4.26909ZM1.53028 15.3991C1.6848 15.7834 2.12161 15.9697 2.50592 15.8152C2.89023 15.6607 3.07652 15.2239 2.922 14.8396L1.53028 15.3991ZM28.2871 16.2381H24.6646V17.7381H28.2871V16.2381ZM24.6646 16.2381C22.6096 16.2381 20.9437 17.904 20.9437 19.9589H22.4437C22.4437 18.7324 23.438 17.7381 24.6646 17.7381V16.2381ZM20.9437 19.9589C20.9437 22.0139 22.6096 23.6798 24.6646 23.6798V22.1798C23.438 22.1798 22.4437 21.1855 22.4437 19.9589H20.9437ZM24.6646 23.6798H28.3944V22.1798H24.6646V23.6798ZM27.5471 17.1104C27.6335 17.6332 27.6769 18.1622 27.677 18.692L29.177 18.692C29.1769 18.0802 29.1268 17.4694 29.027 16.8658L27.5471 17.1104ZM27.677 18.692V22.0998H29.177V18.692H27.677ZM27.677 22.0998C27.677 22.3561 27.6669 22.6103 27.6468 22.8624L29.142 22.9818C29.1653 22.6895 29.177 22.3955 29.177 22.0998H27.677ZM29.0273 16.8677C28.3505 12.7044 25.3383 9.30219 21.2876 8.12585L20.8693 9.56633C24.364 10.5812 26.9628 13.5165 27.5468 17.1084L29.0273 16.8677ZM27.6464 22.8751C27.2903 27.7514 23.2482 31.5363 18.3591 31.5714L18.3699 33.0714C24.0409 33.0307 28.7294 28.6405 29.1424 22.9844L27.6464 22.8751ZM18.3645 31.5714H11.6561V33.0714H18.3645V31.5714ZM11.6621 31.5714C6.47508 31.5304 2.30326 27.2927 2.34361 22.1057L0.843658 22.094C0.796864 28.1093 5.6349 33.0238 11.6502 33.0714L11.6621 31.5714ZM2.34364 22.0998V18.692H0.843635V22.0998H2.34364ZM2.34363 18.6913C2.34255 17.5608 2.54115 16.4389 2.9303 15.3775L1.52197 14.8612C1.07201 16.0885 0.842376 17.3856 0.843635 18.6927L2.34363 18.6913ZM21.2868 8.12506C20.3369 7.85309 19.3538 7.71433 18.3657 7.71276L18.3633 9.21276C19.2125 9.21411 20.0575 9.33337 20.8739 9.56712L21.2868 8.12506ZM18.3645 7.71276H11.6561V9.21276H18.3645V7.71276ZM11.6527 7.71277C7.10889 7.73382 3.06196 10.5905 1.5206 14.8649L2.93167 15.3738C4.25942 11.6917 7.74552 9.23089 11.6596 9.21275L11.6527 7.71277ZM21.7368 8.48336L20.1652 5.63903L18.8523 6.36449L20.4239 9.20882L21.7368 8.48336ZM20.1722 5.65212C19.0363 3.49645 17.0637 1.90293 14.7174 1.24557L14.3128 2.68995C16.2623 3.23616 17.9014 4.56023 18.8452 6.35139L20.1722 5.65212ZM14.7174 1.24557C12.3711 0.58821 9.85775 0.924901 7.76719 2.17662L8.53775 3.46357C10.2748 2.42351 12.3632 2.14375 14.3128 2.68995L14.7174 1.24557ZM7.76479 2.17806L5.36512 3.62706L6.14048 4.91112L8.54015 3.46212L7.76479 2.17806ZM5.35442 3.63364C1.39992 6.11285 -0.210872 11.0687 1.53028 15.3991L2.922 14.8396C1.45173 11.1828 2.81192 6.99803 6.15118 4.90454L5.35442 3.63364Z" fill="#002F98"/>
</svg>
