<svg width="52" height="51" viewBox="0 0 52 51" fill="none" xmlns="http://www.w3.org/2000/svg">
<path d="M39.2871 17.7381C39.7013 17.7381 40.0371 17.4023 40.0371 16.9881C40.0371 16.5739 39.7013 16.2381 39.2871 16.2381V17.7381ZM39.3944 23.6798C39.8086 23.6798 40.1444 23.344 40.1444 22.9298C40.1444 22.5155 39.8086 22.1798 39.3944 22.1798V23.6798ZM40.027 16.8658C39.9595 16.4571 39.5734 16.1806 39.1647 16.2481C38.7561 16.3157 38.4795 16.7017 38.5471 17.1104L40.027 16.8658ZM39.427 18.692H40.177V18.692L39.427 18.692ZM38.6468 22.8624C38.6138 23.2753 38.9218 23.6368 39.3347 23.6697C39.7476 23.7027 40.1091 23.3947 40.142 22.9818L38.6468 22.8624ZM38.5468 17.1084C38.6132 17.5173 38.9986 17.7948 39.4074 17.7284C39.8163 17.6619 40.0938 17.2766 40.0273 16.8677L38.5468 17.1084ZM32.2876 8.12585C31.8899 8.01033 31.4737 8.23915 31.3582 8.63693C31.2427 9.0347 31.4715 9.45081 31.8693 9.56633L32.2876 8.12585ZM40.1424 22.9844C40.1726 22.5713 39.8621 22.2119 39.449 22.1817C39.0359 22.1516 38.6765 22.462 38.6464 22.8751L40.1424 22.9844ZM29.3645 32.3214V33.0714L29.3699 33.0714L29.3645 32.3214ZM22.6561 32.3214L22.6502 33.0714H22.6561V32.3214ZM12.5936 22.0998L13.3436 22.1057V22.0998H12.5936ZM12.5936 18.692H13.3436L13.3436 18.6913L12.5936 18.692ZM13.9303 15.3775C14.0729 14.9886 13.8732 14.5578 13.4843 14.4152C13.0954 14.2726 12.6646 14.4723 12.522 14.8612L13.9303 15.3775ZM31.8739 9.56712C32.2722 9.68113 32.6874 9.45074 32.8014 9.05253C32.9154 8.65431 32.685 8.23907 32.2868 8.12506L31.8739 9.56712ZM29.3645 8.46276L29.3657 7.71276H29.3645V8.46276ZM22.6561 8.46276V7.71275L22.6527 7.71277L22.6561 8.46276ZM12.5206 14.8649C12.3801 15.2546 12.5821 15.6844 12.9717 15.8249C13.3614 15.9654 13.7912 15.7634 13.9317 15.3738L12.5206 14.8649ZM31.4239 9.20882C31.6243 9.57137 32.0806 9.70287 32.4431 9.50254C32.8057 9.30221 32.9372 8.84591 32.7368 8.48336L31.4239 9.20882ZM30.5087 6.00176L29.8452 6.35139C29.8475 6.35578 29.8499 6.36015 29.8523 6.36449L30.5087 6.00176ZM25.5151 1.96776L25.3128 2.68995L25.5151 1.96776ZM19.1525 2.82009L18.7672 2.17661L18.7648 2.17806L19.1525 2.82009ZM16.7528 4.26909L16.3651 3.62697L16.3544 3.63364L16.7528 4.26909ZM12.5303 15.3991C12.6848 15.7834 13.1216 15.9697 13.5059 15.8152C13.8902 15.6607 14.0765 15.2239 13.922 14.8396L12.5303 15.3991ZM39.2871 16.2381H35.6646V17.7381H39.2871V16.2381ZM35.6646 16.2381C33.6096 16.2381 31.9437 17.904 31.9437 19.9589H33.4437C33.4437 18.7324 34.438 17.7381 35.6646 17.7381V16.2381ZM31.9437 19.9589C31.9437 22.0139 33.6096 23.6798 35.6646 23.6798V22.1798C34.438 22.1798 33.4437 21.1855 33.4437 19.9589H31.9437ZM35.6646 23.6798H39.3944V22.1798H35.6646V23.6798ZM38.5471 17.1104C38.6335 17.6332 38.6769 18.1622 38.677 18.692L40.177 18.692C40.1769 18.0802 40.1268 17.4694 40.027 16.8658L38.5471 17.1104ZM38.677 18.692V22.0998H40.177V18.692H38.677ZM38.677 22.0998C38.677 22.3561 38.6669 22.6103 38.6468 22.8624L40.142 22.9818C40.1653 22.6895 40.177 22.3955 40.177 22.0998H38.677ZM40.0273 16.8677C39.3505 12.7044 36.3383 9.30219 32.2876 8.12585L31.8693 9.56633C35.364 10.5812 37.9628 13.5165 38.5468 17.1084L40.0273 16.8677ZM38.6464 22.8751C38.2903 27.7514 34.2482 31.5363 29.3591 31.5714L29.3699 33.0714C35.0409 33.0307 39.7294 28.6405 40.1424 22.9844L38.6464 22.8751ZM29.3645 31.5714H22.6561V33.0714H29.3645V31.5714ZM22.6621 31.5714C17.4751 31.5304 13.3033 27.2927 13.3436 22.1057L11.8437 22.094C11.7969 28.1093 16.6349 33.0238 22.6502 33.0714L22.6621 31.5714ZM13.3436 22.0998V18.692H11.8436V22.0998H13.3436ZM13.3436 18.6913C13.3425 17.5608 13.5412 16.4389 13.9303 15.3775L12.522 14.8612C12.072 16.0885 11.8424 17.3856 11.8436 18.6927L13.3436 18.6913ZM32.2868 8.12506C31.3369 7.85309 30.3538 7.71433 29.3657 7.71276L29.3633 9.21276C30.2125 9.21411 31.0575 9.33337 31.8739 9.56712L32.2868 8.12506ZM29.3645 7.71276H22.6561V9.21276H29.3645V7.71276ZM22.6527 7.71277C18.1089 7.73382 14.062 10.5905 12.5206 14.8649L13.9317 15.3738C15.2594 11.6917 18.7455 9.23089 22.6596 9.21275L22.6527 7.71277ZM32.7368 8.48336L31.1652 5.63903L29.8523 6.36449L31.4239 9.20882L32.7368 8.48336ZM31.1722 5.65212C30.0363 3.49645 28.0637 1.90293 25.7174 1.24557L25.3128 2.68995C27.2623 3.23616 28.9014 4.56023 29.8452 6.35139L31.1722 5.65212ZM25.7174 1.24557C23.3711 0.58821 20.8577 0.924901 18.7672 2.17662L19.5377 3.46357C21.2748 2.42351 23.3632 2.14375 25.3128 2.68995L25.7174 1.24557ZM18.7648 2.17806L16.3651 3.62706L17.1405 4.91112L19.5401 3.46212L18.7648 2.17806ZM16.3544 3.63364C12.3999 6.11285 10.7891 11.0687 12.5303 15.3991L13.922 14.8396C12.4517 11.1828 13.8119 6.99803 17.1512 4.90454L16.3544 3.63364Z" fill="#002F98"/>
<path d="M3.18134 37.693C3.53234 37.693 3.80534 37.966 3.80534 38.291C3.80534 38.629 3.53234 38.902 3.18134 38.902C2.86934 38.902 2.58334 38.629 2.58334 38.291C2.58334 37.966 2.86934 37.693 3.18134 37.693ZM4.97534 37.693C5.31334 37.693 5.58634 37.966 5.58634 38.291C5.58634 38.629 5.31334 38.902 4.97534 38.902C4.65034 38.902 4.36434 38.629 4.36434 38.291C4.36434 37.966 4.65034 37.693 4.97534 37.693ZM8.30334 45.116C8.55034 45.116 8.74534 45.311 8.74534 45.558C8.74534 45.792 8.55034 46 8.31634 46H7.69234C6.84734 46 6.10634 45.467 5.82034 44.726C5.39134 45.48 4.55934 46 3.61034 46C2.10234 46 0.841344 44.778 0.841344 43.27V42.724C0.841344 41.151 2.05034 39.981 3.61034 39.981H6.40534V43.842C6.40534 44.557 6.93834 45.116 7.69234 45.116H8.30334ZM3.61034 45.116C4.66334 45.116 5.52134 44.258 5.52134 43.205V40.878L3.61034 40.865C2.59634 40.865 1.71234 41.632 1.71234 42.724V43.244C1.71234 44.284 2.57034 45.116 3.61034 45.116ZM18.4452 45.116H20.1612V46H8.07117V45.116H9.91717V36.952H10.7882V41.255L14.4282 40.15C15.8192 39.721 17.3272 40.267 18.0292 41.45C18.3022 41.918 18.4452 42.464 18.4452 43.01V45.116ZM14.6492 38.85C14.3242 38.85 14.0382 38.59 14.0382 38.239C14.0382 37.914 14.3242 37.641 14.6492 37.641C14.9872 37.641 15.2602 37.914 15.2602 38.239C15.2602 38.59 14.9872 38.85 14.6492 38.85ZM17.3142 45.116C17.4572 45.116 17.5612 45.012 17.5612 44.856V43.01C17.5612 42.62 17.4702 42.217 17.2622 41.879C16.7812 41.047 15.7152 40.696 14.6882 40.969L10.7882 42.165V45.116H17.3142ZM23.8942 38.811C23.5692 38.811 23.2832 38.538 23.2832 38.2C23.2832 37.875 23.5692 37.602 23.8942 37.602C24.2322 37.602 24.5052 37.875 24.5052 38.2C24.5052 38.538 24.2322 38.811 23.8942 38.811ZM26.4162 45.116H27.9762V46H19.9552V45.116H22.0612C21.4372 44.739 21.0342 44.037 21.0342 43.231V42.711C21.0342 41.203 22.2822 39.981 23.7902 39.981C25.2982 39.968 26.5202 41.216 26.5202 42.711V44.804C26.5202 44.934 26.4682 45.077 26.4162 45.116ZM25.4282 45.116C25.5322 45.116 25.6362 45.025 25.6362 44.895V42.711C25.6362 41.697 24.8172 40.865 23.7902 40.865C22.7502 40.865 21.8922 41.697 21.8922 42.75V43.257C21.8922 44.297 22.7502 45.116 23.7902 45.116H25.4282ZM36.2243 46H27.8783C27.6313 46 27.4363 45.805 27.4363 45.558C27.4363 45.311 27.6313 45.116 27.8783 45.116H33.8973C33.5983 44.934 33.3773 44.57 33.3773 44.154V43.595C33.3773 42.607 33.0653 41.892 32.4803 41.45C31.3103 40.527 29.3473 40.917 28.8273 41.099L28.5283 40.293C29.3343 39.955 31.5833 39.63 33.0133 40.748C33.7153 41.268 34.2353 42.178 34.2353 43.556V44.154C34.2353 44.7 34.6123 45.116 35.1193 45.116H36.2243V46ZM44.8433 45.116C45.0773 45.116 45.2853 45.311 45.2853 45.558C45.2853 45.792 45.0773 46 44.8433 46H44.3233C43.5433 46 42.8803 45.48 42.6983 44.778C42.2693 45.506 41.4633 46 40.5403 46C39.5523 46 38.7333 45.493 38.2913 44.726C38.0053 45.467 37.2773 46 36.4323 46H35.9123C35.6653 46 35.4703 45.792 35.4703 45.558C35.4703 45.324 35.6653 45.116 35.9123 45.116H36.4323C37.1473 45.116 37.7063 44.557 37.7063 43.829V39.981H40.5403C42.0483 39.981 43.2833 41.19 43.2963 42.698V44.089C43.2963 44.648 43.7643 45.116 44.3233 45.116H44.8433ZM42.4123 43.218V42.724C42.3993 41.671 41.5673 40.865 40.4753 40.865H38.6033V43.257C38.6033 44.297 39.4613 45.129 40.4753 45.116C41.6063 45.103 42.4123 44.271 42.4123 43.218ZM44.7247 46C44.4907 46 44.2957 45.805 44.2957 45.558C44.2957 45.324 44.4907 45.116 44.7247 45.116H45.5567C46.0637 45.116 46.4667 44.713 46.4667 44.232V36.952H47.3507V44.232C47.3507 45.207 46.5577 46 45.5827 46H44.7247ZM49.7686 46V36.9H50.6396V46H49.7686Z" fill="#002F98"/>
</svg>
